<svg width="273" height="272" viewBox="0 0 273 272" fill="none" xmlns="http://www.w3.org/2000/svg">
<path d="M215.011 172.298L210.574 155.559L199.942 169.246L182.588 168.282L192.373 182.591L186.093 198.728L202.766 193.882L216.237 204.817L216.763 187.521L231.362 178.142L215.011 172.298Z" fill="black"/>
<path d="M178.467 123.521C158.114 101.434 142.849 115.554 109.046 103.606C75.2434 91.6576 68.7043 67.0286 68.7043 67.0286C68.7043 67.0286 66.8891 80.9108 66.6438 87.1885C66.3985 93.4662 68.459 103.487 68.459 103.487C68.459 103.487 64.8215 103.368 54.2805 97.3278C43.7394 91.2945 40.95 84.535 40.95 84.535C40.95 84.535 44.9449 114.59 69.1809 129.317C93.4099 144.044 120.555 133.828 145.996 133.507C171.438 133.179 183.556 141.635 194.097 164.085C194.097 164.078 198.821 145.608 178.467 123.521Z" fill="black"/>
</svg>
