<svg width="273" height="272" viewBox="0 0 273 272" fill="none" xmlns="http://www.w3.org/2000/svg">
<path d="M179.92 162.853L163.863 159.295C162.7 159.037 161.85 158.031 161.784 156.834L160.638 136.272L170.213 134.659C175.021 133.853 175.194 126.943 170.436 125.888L143.624 119.943C141.686 119.51 140.268 117.831 140.152 115.827L137.381 66.2154C137.068 60.5949 128.845 60.5949 128.532 66.2154L125.761 115.827C125.646 117.831 124.227 119.51 122.289 119.943L95.4777 125.888C90.7191 126.943 90.8923 133.844 95.7004 134.659L120.953 138.9C122.974 139.24 124.499 140.928 124.648 142.99L128.54 198.821C128.928 204.359 136.994 204.359 137.381 198.821L139.468 168.815L150.296 170.635C151.509 170.835 152.424 171.849 152.506 173.088L154.832 206.512C155.063 209.829 159.896 209.829 160.127 206.512L162.452 173.088C162.535 171.858 163.45 170.843 164.663 170.635L179.78 168.091C182.666 167.617 182.765 163.485 179.92 162.853ZM151.096 159.295L139.963 161.764L141.274 142.999C141.414 140.937 142.948 139.249 144.969 138.908L154.271 137.345L153.183 156.834C153.108 158.031 152.259 159.037 151.096 159.295Z" fill="black"/>
</svg>
