<svg width="272" height="272" viewBox="0 0 272 272" fill="none" xmlns="http://www.w3.org/2000/svg">
<path d="M142.348 123.383L135.412 96.1221C134.294 91.735 128.069 91.735 126.95 96.1221L120.014 123.383C119.623 124.908 118.45 126.104 116.933 126.519L86.755 134.769C82.3835 135.966 82.5087 142.206 86.9192 143.231L114.712 149.682C116.284 150.05 117.535 151.254 117.942 152.818L126.95 186.945C128.092 191.277 134.247 191.277 135.388 186.945L144.397 152.818C144.812 151.254 146.055 150.05 147.627 149.682L175.42 143.231C179.83 142.206 179.955 135.966 175.584 134.769L145.406 126.519C143.912 126.097 142.739 124.9 142.348 123.383Z" fill="black"/>
<path d="M173.543 93.823L170.767 82.9139C170.321 81.1622 167.826 81.1622 167.381 82.9139L164.604 93.823C164.448 94.4329 163.979 94.9099 163.377 95.0742L151.302 98.3743C149.551 98.8513 149.605 101.346 151.365 101.76L162.485 104.341C163.119 104.49 163.611 104.967 163.775 105.6L167.381 119.254C167.842 120.99 170.297 120.99 170.759 119.254L174.364 105.6C174.528 104.974 175.029 104.49 175.654 104.341L186.774 101.76C188.542 101.354 188.589 98.8513 186.837 98.3743L174.763 95.0742C174.168 94.9099 173.699 94.4329 173.543 93.823Z" fill="black"/>
</svg>
