<svg width="273" height="272" viewBox="0 0 273 272" fill="none" xmlns="http://www.w3.org/2000/svg">
<path d="M138.237 71.3185L143.419 127.004C143.503 127.926 144.238 128.65 145.162 128.741L201.053 133.904C203.382 134.122 203.382 137.512 201.053 137.731L145.162 142.893C144.238 142.978 143.51 143.709 143.419 144.631L138.237 200.316C138.018 202.637 134.615 202.637 134.397 200.316L129.215 144.631C129.13 143.709 128.396 142.985 127.471 142.893L71.5807 137.731C69.2511 137.512 69.2511 134.122 71.5807 133.904L127.471 128.741C128.396 128.657 129.123 127.926 129.215 127.004L134.397 71.3185C134.615 68.9974 138.018 68.9974 138.237 71.3185Z" fill="black"/>
<path d="M125.949 125.503C127.95 123.509 123.778 116.119 116.629 108.996C109.48 101.874 102.063 97.7166 100.061 99.7108C98.0596 101.705 102.232 109.095 109.381 116.218C116.529 123.34 123.947 127.498 125.949 125.503Z" fill="black"/>
<path d="M116.631 162.646C123.78 155.524 127.952 148.133 125.951 146.139C123.949 144.145 116.532 148.302 109.383 155.424C102.235 162.547 98.062 169.937 100.064 171.932C102.065 173.926 109.483 169.768 116.631 162.646Z" fill="black"/>
<path d="M172.545 171.934C174.546 169.94 170.374 162.55 163.225 155.427C156.076 148.305 148.659 144.147 146.657 146.142C144.656 148.136 148.828 155.526 155.977 162.649C163.126 169.771 170.543 173.929 172.545 171.934Z" fill="black"/>
<path d="M163.223 116.221C170.371 109.098 174.544 101.708 172.542 99.7134C170.541 97.7192 163.123 101.877 155.974 108.999C148.826 116.121 144.653 123.512 146.655 125.506C148.656 127.5 156.074 123.343 163.223 116.221Z" fill="black"/>
</svg>
