<svg width="273" height="272" viewBox="0 0 273 272" fill="none" xmlns="http://www.w3.org/2000/svg">
<path d="M162.498 154.257C172.487 145.818 185.042 140.294 198.872 139.016L226.2 136.49L198.872 133.963C185.042 132.685 172.495 127.161 162.498 118.722L200.066 73.6382L154.817 111.068C146.346 101.116 140.802 88.6073 139.52 74.828L136.984 47.6001L134.448 74.828C133.165 88.6073 127.621 101.109 119.151 111.068L73.9013 73.6382L111.469 118.722C101.48 127.161 88.9255 132.685 75.103 133.963L47.7749 136.49L75.103 139.016C88.9329 140.294 101.48 145.825 111.469 154.257L73.9013 199.341L119.151 161.911C127.621 171.863 133.165 184.372 134.448 198.144L136.984 225.372L139.52 198.144C140.802 184.364 146.354 171.863 154.817 161.911L200.066 199.341L162.498 154.257ZM174.706 134.954L191.36 136.49L174.706 138.032C167.408 138.708 160.722 141.352 155.097 145.377L147.695 136.49L155.104 127.602C160.722 131.627 167.408 134.279 174.706 134.954ZM135.443 98.9124L136.984 82.32L138.525 98.9124C139.203 106.184 141.864 112.846 145.904 118.443L136.984 125.825L128.064 118.443C132.111 112.846 134.765 106.184 135.443 98.9124ZM99.2759 138.032L82.6224 136.49L99.2759 134.954C106.574 134.279 113.261 131.627 118.878 127.602L126.287 136.49L118.878 145.377C113.253 141.352 106.567 138.7 99.2759 138.032ZM130.025 136.49L95.9511 95.6071L136.984 129.556L178.016 95.6071L143.943 136.49L178.016 177.372L136.984 143.423L95.9511 177.372L130.025 136.49ZM138.532 174.067L136.991 190.659L135.45 174.067C134.772 166.795 132.111 160.133 128.071 154.536L136.991 147.154L145.911 154.536C141.871 160.14 139.21 166.802 138.532 174.067Z" fill="black"/>
</svg>
