<svg width="273" height="273" viewBox="0 0 273 273" fill="none" xmlns="http://www.w3.org/2000/svg">
<path d="M161.009 181.667C159.51 181.667 158.018 181.188 156.708 180.246L138.271 166.848C137.038 165.946 135.374 165.946 134.134 166.848L115.697 180.246C113.083 182.146 109.708 182.146 107.095 180.246C104.481 178.347 103.437 175.137 104.434 172.068L111.474 150.397C111.945 148.945 111.435 147.36 110.195 146.465L91.7581 133.067C89.1444 131.167 88.1005 127.957 89.0973 124.888C90.0941 121.819 92.8255 119.834 96.0593 119.834H118.845C120.375 119.834 121.717 118.86 122.188 117.4L129.229 95.7297C130.225 92.6608 132.957 90.675 136.183 90.675C139.409 90.675 142.14 92.6608 143.145 95.7297L150.185 117.4C150.656 118.852 151.998 119.834 153.529 119.834H176.314C179.54 119.834 182.271 121.819 183.276 124.888C184.273 127.957 183.229 131.167 180.623 133.067L162.186 146.465C160.946 147.367 160.436 148.945 160.907 150.397L167.947 172.068C168.944 175.137 167.9 178.347 165.294 180.246C164.007 181.196 162.508 181.667 161.009 181.667ZM136.206 162.374C137.713 162.374 139.22 162.845 140.507 163.779L158.944 177.177C160.467 178.284 162.084 177.9 163.081 177.177C164.078 176.448 164.941 175.035 164.36 173.245L157.32 151.574C156.339 148.553 157.406 145.264 159.981 143.396L178.418 129.998C179.94 128.891 180.074 127.243 179.697 126.066C179.32 124.888 178.237 123.632 176.353 123.632H153.568C150.389 123.632 147.595 121.6 146.606 118.578L139.566 96.9071C138.985 95.1175 137.454 94.4739 136.222 94.4739C134.99 94.4739 133.459 95.1097 132.878 96.9071L125.838 118.578C124.857 121.6 122.063 123.632 118.876 123.632H96.0907C94.2069 123.632 93.1238 124.888 92.747 126.066C92.3625 127.243 92.5037 128.891 94.0264 129.998L112.463 143.396C115.038 145.264 116.105 148.553 115.124 151.574L108.084 173.245C107.503 175.035 108.358 176.455 109.363 177.177C110.36 177.907 111.977 178.284 113.499 177.177L131.936 163.779C133.184 162.845 134.691 162.374 136.206 162.374Z" fill="black"/>
</svg>
