<svg width="273" height="273" viewBox="0 0 273 273" fill="none" xmlns="http://www.w3.org/2000/svg">
<path d="M111.34 183.539C109.456 183.539 107.564 182.943 105.924 181.742C102.635 179.348 101.317 175.306 102.58 171.437L109.621 149.766C109.841 149.099 109.605 148.369 109.032 147.953L90.5951 134.555C87.3064 132.161 85.9878 128.119 87.2436 124.249C88.4995 120.38 91.9451 117.884 96.0108 117.884H118.796C119.503 117.884 120.115 117.436 120.334 116.761L127.375 95.0905C128.631 91.221 132.076 88.7251 136.142 88.7251C140.208 88.7251 143.646 91.221 144.901 95.0905L151.942 116.761C152.162 117.428 152.774 117.884 153.48 117.884H176.266C180.331 117.884 183.769 120.38 185.033 124.249C186.289 128.119 184.978 132.161 181.681 134.555L163.244 147.953C162.671 148.369 162.436 149.091 162.656 149.758L169.696 171.429C170.952 175.298 169.641 179.34 166.345 181.734C163.048 184.128 158.802 184.128 155.513 181.734L137.076 168.336C136.503 167.92 135.742 167.92 135.177 168.336L116.74 181.734C115.115 182.943 113.231 183.539 111.34 183.539ZM96.0108 125.489C94.9905 125.489 94.6059 126.188 94.4724 126.612C94.339 127.028 94.237 127.82 95.0611 128.417L113.498 141.815C116.74 144.17 118.082 148.314 116.85 152.12L109.809 173.791C109.495 174.764 110.045 175.345 110.398 175.596C110.751 175.855 111.473 176.193 112.297 175.596L130.734 162.198C133.976 159.844 138.332 159.844 141.574 162.198L160.011 175.589C160.835 176.185 161.557 175.848 161.91 175.589C162.263 175.33 162.813 174.749 162.499 173.775L155.458 152.105C154.218 148.298 155.568 144.154 158.81 141.799L177.247 128.401C178.079 127.797 177.969 127.012 177.835 126.588C177.702 126.172 177.317 125.474 176.297 125.474H153.512C149.509 125.474 145.985 122.915 144.744 119.108L137.704 97.4373C137.39 96.4641 136.605 96.3228 136.166 96.3228C135.726 96.3228 134.941 96.4641 134.627 97.4452L127.587 119.116C126.347 122.923 122.83 125.481 118.82 125.481H96.0108V125.489Z" fill="black"/>
</svg>
