<svg width="272" height="273" viewBox="0 0 272 273" fill="none" xmlns="http://www.w3.org/2000/svg">
<path d="M141.171 97.3254L148.225 118.889C148.949 121.107 151.033 122.614 153.385 122.614H176.216C181.477 122.614 183.664 129.299 179.409 132.368L160.935 145.7C159.032 147.074 158.237 149.503 158.961 151.729L166.015 173.292C167.643 178.259 161.918 182.391 157.663 179.321L139.189 165.99C137.286 164.615 134.714 164.615 132.811 165.99L114.337 179.321C110.082 182.391 104.357 178.259 105.985 173.292L113.039 151.729C113.763 149.511 112.968 147.074 111.065 145.7L92.5911 132.368C88.3363 129.299 90.5227 122.614 95.7841 122.614H118.615C120.967 122.614 123.051 121.107 123.774 118.889L130.829 97.3254C132.465 92.3583 139.543 92.3583 141.171 97.3254Z" fill="black"/>
</svg>
