<svg width="273" height="273" viewBox="0 0 273 273" fill="none" xmlns="http://www.w3.org/2000/svg">
<path d="M163.777 131.204L140.991 130.819C138.645 130.78 136.588 129.234 135.905 126.989L129.234 105.2C127.695 100.185 120.639 100.059 118.928 105.028L111.519 126.581C110.757 128.802 108.654 130.278 106.307 130.238L83.5219 129.854C78.271 129.767 75.9791 136.439 80.1704 139.602L98.3798 153.306C100.256 154.719 101.009 157.176 100.248 159.397L92.8385 180.95C91.1353 185.91 96.7708 190.157 101.072 187.151L119.729 174.066C121.652 172.716 124.218 172.764 126.094 174.176L144.304 187.881C148.495 191.036 154.28 186.986 152.741 181.962L146.07 160.174C145.379 157.929 146.219 155.496 148.142 154.154L166.798 141.07C171.1 138.048 169.028 131.29 163.777 131.204Z" fill="black"/>
<path d="M174.467 97.069L164.373 96.8963C163.329 96.8806 162.427 96.1899 162.121 95.2009L159.162 85.5468C158.479 83.3256 155.355 83.2706 154.593 85.4683L151.313 95.0204C150.975 96.0015 150.041 96.6608 149.005 96.6373L138.911 96.4646C136.588 96.4253 135.568 99.3844 137.428 100.781L145.497 106.856C146.329 107.484 146.658 108.568 146.321 109.557L143.04 119.109C142.286 121.306 144.782 123.19 146.69 121.856L154.962 116.055C155.81 115.459 156.956 115.475 157.788 116.102L165.857 122.178C167.717 123.575 170.276 121.777 169.593 119.556L166.634 109.902C166.328 108.905 166.696 107.83 167.552 107.233L175.825 101.433C177.708 100.106 176.79 97.1082 174.467 97.069Z" fill="black"/>
<path d="M194.411 111.275L189.741 111.197C189.262 111.189 188.838 110.875 188.697 110.412L187.331 105.946C187.017 104.918 185.565 104.894 185.22 105.907L183.705 110.326C183.548 110.781 183.116 111.087 182.638 111.071L177.967 110.993C176.892 110.977 176.421 112.343 177.285 112.986L181.013 115.796C181.397 116.087 181.554 116.589 181.397 117.044L179.883 121.463C179.529 122.483 180.691 123.355 181.57 122.735L185.392 120.05C185.785 119.776 186.311 119.784 186.695 120.074L190.424 122.884C191.287 123.527 192.472 122.703 192.15 121.675L190.785 117.209C190.643 116.746 190.816 116.251 191.209 115.977L195.031 113.292C195.91 112.68 195.486 111.299 194.411 111.275Z" fill="black"/>
</svg>
