<svg width="273" height="273" viewBox="0 0 273 273" fill="none" xmlns="http://www.w3.org/2000/svg">
<path d="M183.245 149.741L166.535 144.28L183.092 132.177C186.456 129.712 187.805 125.551 186.521 121.568C185.236 117.585 181.719 115.016 177.552 115.016H156.362L167.185 100.02C168.133 98.711 167.844 96.877 166.543 95.9236C165.234 94.9702 163.42 95.261 162.472 96.5699L151.841 111.299L145.466 91.5526C144.181 87.5693 140.664 85 136.505 85C132.345 85 128.82 87.5693 127.536 91.5526L121.16 111.299L110.529 96.5699C109.582 95.261 107.759 94.9702 106.458 95.9236C105.157 96.877 104.868 98.711 105.816 100.02L116.64 115.016H95.4495C91.2902 115.016 87.7653 117.585 86.4805 121.568C85.1958 125.551 86.5367 129.712 89.9091 132.177L106.466 144.28L89.7566 149.741C88.2229 150.242 87.3879 151.899 87.8857 153.442C88.2872 154.678 89.4274 155.47 90.6559 155.47C90.953 155.47 91.2581 155.421 91.5552 155.324L108.763 149.701L102.162 170.142C100.877 174.126 102.218 178.286 105.583 180.751C107.269 181.979 109.196 182.601 111.123 182.601C113.05 182.601 114.985 181.987 116.664 180.759L133.582 168.389V186.067C133.582 187.683 134.883 189 136.497 189C138.11 189 139.411 187.683 139.411 186.067V168.389L156.33 180.759C159.694 183.223 164.046 183.223 167.41 180.759C170.775 178.295 172.124 174.134 170.839 170.15L164.239 149.709L181.446 155.333C181.743 155.429 182.048 155.478 182.345 155.478C183.574 155.478 184.714 154.694 185.115 153.45C185.613 151.899 184.778 150.242 183.245 149.741ZM162.841 174.416C162.48 174.683 161.741 175.03 160.898 174.416L142.037 160.633C138.721 158.209 134.272 158.209 130.948 160.633L112.087 174.424C111.244 175.039 110.505 174.691 110.144 174.424C109.782 174.158 109.22 173.568 109.541 172.566L116.744 150.259C118.013 146.34 116.631 142.074 113.315 139.65L94.4539 125.858C93.6108 125.236 93.7152 124.428 93.8517 124C93.9882 123.572 94.3816 122.845 95.4254 122.845H118.735C122.83 122.845 126.436 120.211 127.704 116.292L134.907 93.9845C135.228 92.9826 136.031 92.8291 136.48 92.8291C136.93 92.8291 137.733 92.9746 138.054 93.9764L145.257 116.284C146.525 120.203 150.123 122.837 154.226 122.837H177.536C178.579 122.837 178.973 123.556 179.109 123.984C179.246 124.412 179.358 125.228 178.507 125.85L159.646 139.642C156.33 142.066 154.956 146.324 156.217 150.25L163.42 172.558C163.773 173.56 163.211 174.15 162.841 174.416Z" fill="black"/>
</svg>
