<svg width="273" height="273" viewBox="0 0 273 273" fill="none" xmlns="http://www.w3.org/2000/svg">
<path d="M154.033 136.397H135.918V118.281C135.918 110.236 129.395 103.714 121.35 103.714C113.305 103.714 106.783 110.236 106.783 118.281V136.397H88.6677C80.6226 136.397 74.1001 142.919 74.1001 150.964C74.1001 159.009 80.6226 165.532 88.6677 165.532H106.783V183.647C106.783 191.692 113.305 198.214 121.35 198.214C129.395 198.214 135.918 191.692 135.918 183.647V165.532H154.033C162.078 165.532 168.601 159.009 168.601 150.964C168.601 142.919 162.078 136.397 154.033 136.397Z" fill="black"/>
<path d="M190.303 91.5481H180.633V81.8783C180.633 77.585 177.148 74.1001 172.855 74.1001C168.561 74.1001 165.076 77.585 165.076 81.8783V91.5481H155.407C151.113 91.5481 147.628 95.033 147.628 99.3263C147.628 103.62 151.113 107.105 155.407 107.105H165.076V116.774C165.076 121.068 168.561 124.553 172.855 124.553C177.148 124.553 180.633 121.068 180.633 116.774V107.105H190.303C194.596 107.105 198.081 103.628 198.081 99.3263C198.081 95.0252 194.604 91.5481 190.303 91.5481Z" fill="black"/>
<path d="M189.314 175.625H183.717V170.029C183.717 167.541 181.7 165.524 179.212 165.524C176.724 165.524 174.707 167.541 174.707 170.029V175.625H169.111C166.623 175.625 164.605 177.642 164.605 180.13C164.605 182.619 166.623 184.636 169.111 184.636H174.707V190.232C174.707 192.72 176.724 194.737 179.212 194.737C181.7 194.737 183.717 192.72 183.717 190.232V184.636H189.314C191.802 184.636 193.819 182.619 193.819 180.13C193.819 177.642 191.802 175.625 189.314 175.625Z" fill="black"/>
</svg>
