<svg width="272" height="273" viewBox="0 0 272 273" fill="none" xmlns="http://www.w3.org/2000/svg">
<path d="M197.544 168.21L175.424 137.843C175.042 137.325 175.042 136.627 175.424 136.101L197.544 105.742C199.23 103.427 199.589 100.547 198.59 97.9497C198.551 97.4632 198.418 96.9846 198.16 96.5373C197.864 96.0273 197.458 95.6349 196.982 95.3525C195.248 93.4143 192.718 92.4099 190.04 92.6924L152.821 96.757C152.181 96.8355 151.58 96.4745 151.322 95.886L136.214 61.4622C134.887 58.4333 132.014 56.55 128.711 56.55C125.408 56.55 122.543 58.4333 121.208 61.4622L106.1 95.8939C105.842 96.4824 105.233 96.8512 104.601 96.7649L67.3817 92.7002C64.1103 92.355 61.0496 93.9008 59.4022 96.7727C57.7548 99.6447 57.9422 103.082 59.8863 105.757L82.0055 136.117C82.0914 136.234 82.1539 136.368 82.2007 136.501C82.1539 136.736 82.1226 136.98 82.1226 137.231C82.1226 137.341 82.146 137.45 82.1538 137.56C82.107 137.662 82.068 137.764 82.0055 137.859L59.8863 168.226C57.9422 170.894 57.7548 174.338 59.4022 177.21C61.0496 180.082 64.1181 181.636 67.3895 181.283L104.617 177.218C104.882 177.187 105.14 177.242 105.366 177.344C105.413 177.375 105.452 177.414 105.507 177.438C105.546 177.461 105.585 177.469 105.624 177.485C105.835 177.634 106.006 177.83 106.116 178.081L121.223 212.513C122.551 215.542 125.424 217.425 128.727 217.425C132.022 217.425 134.895 215.542 136.23 212.513L151.338 178.081C151.595 177.493 152.22 177.14 152.837 177.21L190.056 181.275C193.078 181.597 195.881 180.302 197.591 177.869C197.809 177.657 198.004 177.414 198.168 177.132C198.332 176.841 198.434 176.535 198.512 176.229C199.597 173.569 199.269 170.588 197.544 168.21ZM188.955 167.873L141.422 140.291L169.069 140.15C169.319 140.738 169.608 141.311 169.998 141.845L188.955 167.873ZM105.569 170.478C105.311 170.454 105.054 170.423 104.788 170.423C104.492 170.423 104.187 170.438 103.89 170.47L71.3402 174.024L119.381 146.145L105.569 170.478ZM103.883 103.482C104.296 103.529 104.702 103.529 105.101 103.513L118.881 127.21L71.9726 99.9899L103.883 103.482ZM169.99 132.115C169.694 132.523 169.452 132.946 169.241 133.386L141.133 133.535L189.338 105.569L169.99 132.115ZM185.457 99.9977L137.534 127.807L151.377 103.419C152.079 103.529 152.806 103.568 153.547 103.49L185.457 99.9977ZM145.162 98.6167C145.326 98.9934 145.529 99.3543 145.74 99.6917L132.084 123.758V68.8067L145.162 98.6167ZM125.346 68.8067V124.935L111.12 100.469C111.565 99.9115 111.964 99.2994 112.268 98.6246L125.346 68.8067ZM68.0922 105.561L116.523 133.661L88.3688 133.81C88.1189 133.221 87.83 132.648 87.4396 132.115L68.0922 105.561ZM87.4396 141.845C87.7363 141.437 87.9783 141.013 88.1891 140.574L115.782 140.424L68.4825 167.873L87.4396 141.845ZM112.268 175.335C112.034 174.801 111.729 174.315 111.401 173.852L125.346 149.276V205.153L112.268 175.335ZM132.084 205.153V149.919L146.013 173.875C145.693 174.33 145.396 174.809 145.162 175.335L132.084 205.153ZM151.837 170.486L137.503 145.831L186.098 174.032L153.547 170.478C152.97 170.407 152.4 170.423 151.837 170.486Z" fill="black"/>
</svg>
