<svg width="273" height="273" viewBox="0 0 273 273" fill="none" xmlns="http://www.w3.org/2000/svg">
<path d="M139.801 43.6801L142.191 96.9517C142.32 99.8813 146.288 100.67 147.535 98.0141L170.127 49.7082C171.64 46.4728 176.525 48.493 175.302 51.8491L157.121 101.982C156.123 104.734 159.487 106.988 161.652 105.008L201.008 69.0322C203.648 66.6177 207.382 70.3521 204.968 72.992L168.992 112.348C167.012 114.513 169.266 117.877 172.018 116.879L222.151 98.6982C225.515 97.4829 227.535 102.36 224.292 103.873L175.986 126.465C173.33 127.704 174.119 131.672 177.048 131.809L230.32 134.199C233.893 134.36 233.893 139.64 230.32 139.801L177.048 142.191C174.119 142.32 173.33 146.288 175.986 147.535L224.292 170.127C227.527 171.64 225.507 176.525 222.151 175.302L172.018 157.121C169.266 156.123 167.012 159.487 168.992 161.652L204.968 201.008C207.382 203.648 203.648 207.382 201.008 204.968L161.652 168.992C159.487 167.012 156.123 169.266 157.121 172.018L175.302 222.151C176.517 225.515 171.64 227.535 170.127 224.292L147.535 175.986C146.296 173.33 142.328 174.119 142.191 177.048L139.801 230.32C139.64 233.893 134.36 233.893 134.199 230.32L131.809 177.048C131.68 174.119 127.712 173.33 126.465 175.986L103.873 224.292C102.36 227.527 97.4749 225.507 98.6982 222.151L116.879 172.018C117.877 169.266 114.513 167.012 112.348 168.992L72.992 204.968C70.3522 207.382 66.6177 203.648 69.0322 201.008L105.008 161.652C106.988 159.487 104.734 156.123 101.982 157.121L51.8491 175.302C48.4849 176.517 46.4648 171.64 49.7082 170.127L98.0141 147.535C100.67 146.296 99.8813 142.328 96.9517 142.191L43.6801 139.801C40.1066 139.64 40.1066 134.36 43.6801 134.199L96.9517 131.809C99.8813 131.68 100.67 127.712 98.0141 126.465L49.7082 103.873C46.4728 102.36 48.493 97.4749 51.8491 98.6982L101.982 116.879C104.734 117.877 106.988 114.513 105.008 112.348L69.0322 72.992C66.6177 70.3521 70.3522 66.6177 72.992 69.0322L112.348 105.008C114.513 106.988 117.877 104.734 116.879 101.982L98.6982 51.8491C97.4829 48.4849 102.36 46.4648 103.873 49.7082L126.465 98.0141C127.704 100.67 131.672 99.8813 131.809 96.9517L134.199 43.6801C134.36 40.1066 139.64 40.1066 139.801 43.6801Z" fill="black"/>
</svg>
