<svg width="273" height="273" viewBox="0 0 273 273" fill="none" xmlns="http://www.w3.org/2000/svg">
<path d="M216.135 132.086L158.036 117.464C157.597 117.354 157.256 117.014 157.144 116.577L142.434 58.8282C141.85 56.5391 139.869 55.0065 137.493 55C135.118 55 133.13 56.5391 132.546 58.8282L117.836 116.577C117.725 117.014 117.383 117.354 116.944 117.464L58.8447 132.086C56.5418 132.666 55 134.636 55 136.997V137.003C55 139.364 56.5484 141.34 58.8513 141.914L116.95 156.536C117.39 156.646 117.731 156.986 117.843 157.423L132.553 215.172C133.137 217.461 135.125 219 137.5 219C139.875 219 141.863 217.461 142.447 215.172L157.157 157.423C157.269 156.986 157.61 156.646 158.049 156.536L216.149 141.914C218.451 141.334 220 139.358 220 137.003C219.987 134.642 218.438 132.666 216.135 132.086ZM157.085 152.812C155.268 153.268 153.85 154.67 153.391 156.483L139.422 211.324V146.897C139.422 145.834 138.556 144.973 137.487 144.973C136.417 144.973 135.551 145.834 135.551 146.897V211.324L121.583 156.483C121.123 154.677 119.706 153.268 117.889 152.812L62.7159 138.927H114.634C115.704 138.927 116.57 138.066 116.57 137.003C116.57 135.94 115.704 135.079 114.634 135.079H62.7094L117.889 121.195C119.706 120.738 121.123 119.33 121.583 117.523L135.551 62.6825V127.11C135.551 128.173 136.417 129.034 137.487 129.034C138.556 129.034 139.422 128.173 139.422 127.11V62.6825L153.391 117.523C153.85 119.33 155.268 120.738 157.085 121.195L212.258 135.079H160.339C159.27 135.079 158.404 135.94 158.404 137.003C158.404 138.066 159.27 138.927 160.339 138.927H212.258L157.085 152.812Z" fill="black"/>
</svg>
