<svg width="273" height="272" viewBox="0 0 273 272" fill="none" xmlns="http://www.w3.org/2000/svg">
<path d="M126.098 117.375H146.803C148.324 117.375 149.471 115.981 149.173 114.496L138.82 63.1745C138.3 60.5997 134.608 60.5997 134.088 63.1745L123.735 114.496C123.429 115.981 124.576 117.375 126.098 117.375Z" fill="black"/>
<path d="M108.176 145.34L114.575 125.717C115.049 124.269 114.071 122.761 112.557 122.586L60.3666 116.537C57.7517 116.233 56.6049 119.737 58.9062 121.024L104.697 146.696C106.02 147.443 107.702 146.787 108.176 145.34Z" fill="black"/>
<path d="M129.332 170.974L112.58 158.846C111.349 157.955 109.606 158.412 108.963 159.791L87.0658 207.371C85.9648 209.756 88.9543 211.927 90.8964 210.144L129.553 174.683C130.662 173.655 130.563 171.865 129.332 170.974Z" fill="black"/>
<path d="M163.944 159.783C163.31 158.405 161.566 157.947 160.328 158.839L143.576 170.966C142.345 171.857 142.238 173.655 143.362 174.684L182.019 210.145C183.961 211.927 186.95 209.764 185.849 207.372L163.944 159.783Z" fill="black"/>
<path d="M212.541 116.537L160.351 122.586C158.837 122.761 157.866 124.277 158.332 125.717L164.732 145.34C165.206 146.787 166.881 147.435 168.211 146.696L214.001 121.024C216.303 119.737 215.164 116.233 212.541 116.537Z" fill="black"/>
</svg>
