<svg width="273" height="273" viewBox="0 0 273 273" fill="none" xmlns="http://www.w3.org/2000/svg">
<path d="M161.931 146.67L216.876 140.494C221.041 140.029 221.041 133.977 216.876 133.506L161.931 127.33C159.18 127.022 157.851 123.806 159.573 121.644L168.586 110.353C171.199 107.078 166.922 102.801 163.647 105.414L152.356 114.427C150.194 116.149 146.978 114.82 146.671 112.069L140.494 57.1242C140.029 52.9586 133.977 52.9586 133.506 57.1242L127.33 112.069C127.022 114.82 123.806 116.149 121.644 114.427L110.353 105.414C107.078 102.801 102.801 107.078 105.414 110.353L114.427 121.644C116.149 123.806 114.82 127.022 112.069 127.33L57.1242 133.506C52.9586 133.971 52.9586 140.023 57.1242 140.494L112.069 146.67C114.82 146.978 116.149 150.194 114.427 152.356L105.414 163.647C102.801 166.922 107.078 171.199 110.353 168.586L121.644 159.573C123.806 157.851 127.022 159.18 127.33 161.931L133.506 216.876C133.971 221.041 140.023 221.041 140.494 216.876L146.671 161.931C146.978 159.18 150.194 157.851 152.356 159.573L163.647 168.586C166.922 171.199 171.199 166.922 168.586 163.647L159.573 152.356C157.851 150.194 159.18 146.985 161.931 146.67Z" fill="black"/>
</svg>
