<svg width="273" height="273" viewBox="0 0 273 273" fill="none" xmlns="http://www.w3.org/2000/svg">
<path d="M159.303 148.628L174.56 154.092C176.584 154.818 177.793 151.888 175.851 150.973L161.198 144.051C159.605 143.298 160.082 140.919 161.837 140.832L215.817 138.19C217.961 138.083 217.961 134.917 215.817 134.81L161.837 132.168C160.076 132.081 159.605 129.702 161.198 128.949L175.851 122.026C177.793 121.106 176.577 118.182 174.56 118.908L159.303 124.372C157.642 124.964 156.298 122.947 157.481 121.643L193.784 81.6068C195.229 80.0139 192.984 77.7758 191.398 79.2208L151.358 115.521C150.054 116.703 148.037 115.353 148.629 113.699L154.093 98.4427C154.819 96.4197 151.889 95.2099 150.975 97.1523L144.052 111.804C143.299 113.397 140.919 112.92 140.832 111.165L138.19 57.1829C138.083 55.039 134.917 55.039 134.81 57.1829L132.168 111.165C132.081 112.926 129.701 113.397 128.948 111.804L122.025 97.1523C121.104 95.2099 118.181 96.4264 118.906 98.4427L124.371 113.699C124.963 115.359 122.946 116.703 121.642 115.521L81.6022 79.2208C80.0092 77.7758 77.771 80.0206 79.2161 81.6068L115.519 121.643C116.702 122.947 115.351 124.964 113.697 124.372L98.4396 118.908C96.4164 118.182 95.2065 121.112 97.149 122.026L111.802 128.949C113.395 129.702 112.918 132.081 111.163 132.168L57.1831 134.81C55.0389 134.917 55.0389 138.083 57.1831 138.19L111.163 140.832C112.924 140.919 113.395 143.298 111.802 144.051L97.149 150.973C95.2065 151.894 96.4231 154.818 98.4396 154.092L113.697 148.628C115.358 148.036 116.702 150.053 115.519 151.357L79.2161 191.393C77.771 192.986 80.016 195.224 81.6022 193.779L121.642 157.479C122.946 156.296 124.963 157.647 124.371 159.301L118.906 174.557C118.181 176.58 121.111 177.79 122.025 175.848L128.948 161.196C129.701 159.603 132.081 160.08 132.168 161.835L134.81 215.817C134.917 217.961 138.083 217.961 138.19 215.817L140.832 161.835C140.919 160.074 143.299 159.603 144.052 161.196L150.975 175.848C151.896 177.79 154.819 176.573 154.093 174.557L148.629 159.301C148.037 157.641 150.054 156.296 151.358 157.479L191.398 193.779C192.991 195.224 195.229 192.979 193.784 191.393L157.481 151.357C156.298 150.053 157.642 148.036 159.303 148.628Z" fill="black"/>
</svg>
