<svg width="272" height="273" viewBox="0 0 272 273" fill="none" xmlns="http://www.w3.org/2000/svg">
<path d="M152.048 104.266L201.216 99.9473C204.928 99.6237 204.928 94.199 201.216 93.8754L152.048 89.5569C151.093 89.4745 150.628 88.3508 151.241 87.6153L159.683 77.5543C162.081 74.7008 158.24 70.8647 155.382 73.2593L145.308 81.6905C144.572 82.3083 143.452 81.8435 143.364 80.8845L139.04 31.78C138.716 28.0733 133.284 28.0733 132.96 31.78L128.636 80.8845C128.553 81.8376 127.428 82.3024 126.692 81.6905L116.618 73.2593C113.76 70.8647 109.919 74.7008 112.317 77.5543L120.759 87.6153C121.378 88.3508 120.912 89.4686 119.952 89.5569L70.7836 93.8754C67.0721 94.199 67.0721 99.6237 70.7836 99.9473L119.952 104.266C120.907 104.348 121.372 105.472 120.759 106.207L112.317 116.268C109.919 119.122 113.76 122.958 116.618 120.563L126.215 112.526C126.969 111.891 128.123 112.403 128.159 113.391L132.942 242.066C133.09 245.978 138.898 245.978 139.046 242.066L143.83 113.391C143.865 112.409 145.02 111.897 145.774 112.526L155.371 120.563C158.228 122.958 162.069 119.122 159.671 116.268L151.229 106.207C150.628 105.472 151.093 104.348 152.048 104.266Z" fill="black"/>
</svg>
