<svg width="272" height="273" viewBox="0 0 272 273" fill="none" xmlns="http://www.w3.org/2000/svg">
<path d="M138.401 117.661C142.785 124.446 148.57 130.231 155.355 134.615C157.112 135.751 157.112 138.273 155.355 139.409C148.57 143.793 142.785 149.578 138.401 156.363C137.265 158.12 134.743 158.12 133.607 156.363C129.223 149.578 123.438 143.793 116.653 139.409C114.897 138.273 114.897 135.751 116.653 134.615C123.438 130.231 129.223 124.446 133.607 117.661C134.743 115.905 137.265 115.905 138.401 117.661ZM136 59L128.071 95.921C124.501 112.528 111.528 125.501 94.9212 129.071L58 137L94.9212 144.929C111.528 148.499 124.501 161.472 128.071 178.079L136 215L143.929 178.079C147.499 161.472 160.472 148.499 177.079 144.929L214 137L177.079 129.071C160.472 125.501 147.499 112.528 143.929 95.921L136 59Z" fill="black"/>
</svg>
