<svg width="273" height="273" viewBox="0 0 273 273" fill="none" xmlns="http://www.w3.org/2000/svg">
<path d="M144.558 129.242L136.896 46.6255L129.235 129.242L46.6255 136.896L129.235 144.558L136.896 227.175L144.558 144.558L227.175 136.896L144.558 129.242Z" fill="black"/>
<path d="M187.463 113.09L190.283 82.6816L220.699 79.8616L190.283 77.0416L187.463 46.6255L184.643 77.0416L154.227 79.8616L184.643 82.6816L187.463 113.09Z" fill="black"/>
<path d="M81.1075 161.986L79.5856 178.414L63.1577 179.943L79.5856 181.465L81.1075 197.893L82.6295 181.465L99.0648 179.943L82.6295 178.414L81.1075 161.986Z" fill="black"/>
<path d="M172.132 169.073L170.61 152.646L169.088 169.073L152.653 170.595L169.088 172.117L170.61 188.552L172.132 172.117L188.567 170.595L172.132 169.073Z" fill="black"/>
<path d="M99.0647 107.726L100.587 91.291L117.014 89.7691L100.587 88.2472L99.0647 71.8193L97.5427 88.2472L81.1074 89.7691L97.5427 91.291L99.0647 107.726Z" fill="black"/>
<path d="M195.356 175.072L193.835 191.507L177.407 193.029L193.835 194.551L195.356 210.978L196.886 194.551L213.314 193.029L196.886 191.507L195.356 175.072Z" fill="black"/>
</svg>
