<svg width="272" height="272" viewBox="0 0 272 272" fill="none" xmlns="http://www.w3.org/2000/svg">
<path d="M159.489 153.066C165.287 148.365 172.298 145.088 180.014 143.817L224.4 136.515L180.021 129.191C172.305 127.92 165.294 124.636 159.503 119.935L198.672 74.3355L153.058 113.483C148.358 107.685 145.081 100.681 143.809 92.9573L136.507 48.5715L129.184 92.95C127.912 100.666 124.628 107.677 119.927 113.468L74.3352 74.2992L113.483 119.913C107.685 124.614 100.673 127.891 92.9571 129.162L48.5713 136.464L92.9498 143.788C100.666 145.059 107.677 148.343 113.468 153.044L74.299 198.636L119.913 159.489C124.613 165.287 127.89 172.298 129.162 180.014L136.464 224.4L143.787 180.022C145.059 172.305 148.343 165.294 153.044 159.503L198.636 198.672L159.489 153.066ZM142.603 147.362C138.694 145.662 134.262 145.662 130.353 147.362L121.976 150.995L125.616 142.618C127.316 138.709 127.316 134.277 125.616 130.368L121.983 121.991L130.361 125.631C134.27 127.331 138.702 127.331 142.61 125.631L150.988 121.998L147.348 130.375C145.648 134.284 145.648 138.716 147.348 142.625L150.98 151.003L142.603 147.362Z" fill="black"/>
</svg>
