<svg width="273" height="273" viewBox="0 0 273 273" fill="none" xmlns="http://www.w3.org/2000/svg">
<path d="M136.566 145.553C141.525 145.553 145.545 141.533 145.545 136.574C145.545 131.615 141.525 127.594 136.566 127.594C131.607 127.594 127.587 131.615 127.587 136.574C127.587 141.533 131.607 145.553 136.566 145.553Z" fill="black"/>
<path d="M207.512 134.329H185.841C185.135 131.629 183.172 129.415 180.425 128.419L156.51 119.793L176.611 99.6917C177.49 98.8126 177.49 97.392 176.611 96.5208C175.732 95.6417 174.311 95.6417 173.44 96.5208L153.339 116.622L144.713 92.7062C143.724 89.9591 141.511 88.0047 138.811 87.2905V65.6198C138.811 64.3796 137.806 63.375 136.566 63.375C135.326 63.375 134.321 64.3796 134.321 65.6198V87.2905C131.621 88.0047 129.408 89.9591 128.419 92.7062L119.793 116.622L99.6917 96.5208C98.8127 95.6417 97.392 95.6417 96.5208 96.5208C95.6417 97.3998 95.6417 98.8205 96.5208 99.6917L116.622 119.793L92.7063 128.419C89.9592 129.408 88.0047 131.621 87.2905 134.329H65.6199C64.3797 134.329 63.375 135.333 63.375 136.574C63.375 137.814 64.3797 138.818 65.6199 138.818H87.2905C88.0047 141.518 89.9592 143.732 92.7063 144.721L116.622 153.347L96.5208 173.448C95.6417 174.327 95.6417 175.747 96.5208 176.619C96.9603 177.058 97.5333 177.278 98.1063 177.278C98.6792 177.278 99.2522 177.058 99.6917 176.619L119.793 156.518L128.419 180.433C129.408 183.18 131.621 185.135 134.321 185.849V207.52C134.321 208.76 135.326 209.764 136.566 209.764C137.806 209.764 138.811 208.76 138.811 207.52V185.849C141.511 185.135 143.724 183.18 144.713 180.433L153.339 156.518L173.44 176.619C173.879 177.058 174.452 177.278 175.025 177.278C175.598 177.278 176.171 177.058 176.611 176.619C177.49 175.739 177.49 174.319 176.611 173.448L156.51 153.347L180.425 144.721C183.172 143.732 185.127 141.518 185.841 138.818H207.512C208.752 138.818 209.756 137.814 209.756 136.574C209.756 135.333 208.752 134.329 207.512 134.329ZM178.903 140.506L154.5 149.312C152.067 150.191 150.168 152.091 149.289 154.524L140.482 178.926C139.752 180.959 137.971 181.681 136.558 181.681C135.137 181.681 133.363 180.959 132.626 178.926L123.819 154.524C122.94 152.091 121.041 150.191 118.608 149.312L94.2054 140.506C92.1725 139.776 91.4504 137.994 91.4504 136.581C91.4504 135.169 92.1725 133.387 94.2133 132.649L118.615 123.843C121.049 122.964 122.948 121.064 123.827 118.631L132.633 94.2289C133.363 92.1961 135.137 91.4739 136.55 91.4661H136.558H136.566C137.979 91.4739 139.752 92.1961 140.482 94.2211L149.289 118.623C150.168 121.056 152.067 122.956 154.5 123.835L178.903 132.641C180.935 133.371 181.657 135.153 181.657 136.574C181.657 137.994 180.935 139.768 178.903 140.506Z" fill="black"/>
</svg>
