<svg width="272" height="273" viewBox="0 0 272 273" fill="none" xmlns="http://www.w3.org/2000/svg">
<path d="M229.009 135.584L183.116 133.6C178.953 125.535 162.365 119.48 141.304 118.586L137.602 101.702C137.128 99.5465 134.039 99.6226 133.679 101.804L130.893 118.561C110.016 119.372 93.4524 125.244 88.8726 133.137L42.6952 135.591C40.1683 135.724 40.1683 139.465 42.6952 139.598L88.8726 142.052C93.4587 149.939 110.022 155.816 130.893 156.628L133.679 173.385C134.039 175.56 137.128 175.642 137.602 173.486L141.304 156.602C162.365 155.702 178.953 149.647 183.116 141.589L229.009 139.604C231.562 139.484 231.562 135.699 229.009 135.584ZM179.383 133.442L145.77 131.99C144.867 131.952 144.096 131.305 143.906 130.417L141.992 121.693C161.045 122.606 174.778 127.735 179.383 133.442ZM130.388 121.655L129.099 129.428C128.948 130.354 128.171 131.051 127.236 131.102L92.7955 132.928C97.8428 127.368 111.576 122.46 130.388 121.655ZM92.7892 142.254L127.23 144.08C128.165 144.131 128.941 144.829 129.093 145.754L130.382 153.527C111.576 152.722 97.8365 147.815 92.7892 142.254ZM141.986 153.496L143.9 144.772C144.096 143.884 144.86 143.237 145.764 143.199L179.383 141.747C174.784 147.447 161.045 152.576 141.986 153.496Z" fill="black"/>
<path d="M150.091 111.935L180.981 113.578C181.322 113.597 181.607 113.85 181.663 114.186L183.337 124.28C183.47 125.079 184.601 125.104 184.771 124.318L187.071 113.825C187.14 113.501 187.425 113.267 187.753 113.248L218.176 111.929C219.111 111.891 219.111 110.502 218.176 110.464L187.753 109.146C187.425 109.133 187.14 108.898 187.071 108.569L184.771 98.0756C184.601 97.2894 183.47 97.3148 183.337 98.1136L181.663 108.207C181.607 108.543 181.322 108.803 180.981 108.816L150.091 110.458C149.162 110.522 149.162 111.885 150.091 111.935Z" fill="black"/>
<path d="M113.503 162.391L92.7323 161.491C92.5049 161.478 92.3154 161.32 92.2649 161.098L90.6919 153.933C90.5719 153.394 89.8013 153.413 89.7128 153.959L88.5694 160.851C88.5315 161.085 88.3357 161.256 88.102 161.269L67.0094 162.391C66.3777 162.423 66.3777 163.355 67.0094 163.393L88.102 164.515C88.3357 164.528 88.5315 164.699 88.5694 164.934L89.7128 171.826C89.8013 172.371 90.5719 172.39 90.6919 171.851L92.2649 164.686C92.3154 164.464 92.5049 164.306 92.7323 164.293L113.503 163.393C114.141 163.361 114.141 162.417 113.503 162.391Z" fill="black"/>
</svg>
