<svg width="273" height="273" viewBox="0 0 273 273" fill="none" xmlns="http://www.w3.org/2000/svg">
<path d="M196.548 123.362L155.255 117.366L136.786 79.95L118.318 117.366L77.0249 123.362L106.906 152.489L99.8494 193.617L136.778 174.199L173.707 193.617L166.651 152.489L196.548 123.362ZM136.794 168.038L107.102 183.649L112.776 150.582L88.7511 127.169L121.952 122.342L136.802 92.257L151.652 122.342L184.853 127.169L160.827 150.582L166.502 183.649L136.794 168.038Z" fill="black"/>
<path d="M164.273 133.032L145.286 130.277L136.794 113.064L128.301 130.277L109.307 133.032L123.051 146.43L119.809 165.338L136.794 156.414L153.779 165.338L150.529 146.43L164.273 133.032Z" fill="black"/>
</svg>
