<svg width="273" height="273" viewBox="0 0 273 273" fill="none" xmlns="http://www.w3.org/2000/svg">
<path d="M144.062 129.738L136.904 52.4756L129.738 129.738L52.4756 136.897L129.738 144.062L136.904 221.325L144.062 144.062L221.325 136.897L144.062 129.738Z" fill="black"/>
<path d="M126.069 126.068L109.477 104L90.5908 90.5906L104.001 109.484L126.069 126.068Z" fill="black"/>
<path d="M90.5908 183.21L109.484 169.8L126.069 147.732L104.001 164.316L90.5908 183.21Z" fill="black"/>
<path d="M147.732 147.732L164.323 169.8L183.21 183.21L169.8 164.316L147.732 147.732Z" fill="black"/>
<path d="M183.21 90.5906L164.316 103.993L147.732 126.068L169.8 109.477L183.21 90.5906Z" fill="black"/>
</svg>
