<svg width="272" height="273" viewBox="0 0 272 273" fill="none" xmlns="http://www.w3.org/2000/svg">
<path d="M223.429 105.968L202.911 102.972L193.737 84.2703L184.564 102.972L171.355 104.903L158.729 79.156L144.876 107.403L125.506 110.235L109.698 78L90.8106 116.518L48.5715 122.691L79.135 152.669L71.9227 195L109.704 175.015L147.486 195L141.429 159.46L158.735 150.303L186.447 164.962L181.803 137.701L193.755 131.377L212.108 141.085L208.601 120.525L223.429 105.968ZM109.692 168.284L79.7726 184.112L85.4871 150.593L61.2818 126.849L94.7325 121.959L109.692 91.4607L124.652 121.959L158.103 126.849L133.898 150.593L139.612 184.112L109.692 168.284ZM158.723 143.578L140.364 153.293L140.256 152.669L170.819 122.691L128.58 116.518L128.255 115.852L148.798 112.85L158.723 92.6167L168.648 112.85L190.838 116.094L174.777 131.843L178.567 154.079L158.723 143.578ZM193.737 124.652L186.898 128.272L203.56 111.93L183.993 109.067L188.492 108.408L193.737 97.7128L198.983 108.408L210.712 110.12L202.225 118.442L204.228 130.196L193.737 124.652Z" fill="black"/>
</svg>
