<svg width="273" height="273" viewBox="0 0 273 273" fill="none" xmlns="http://www.w3.org/2000/svg">
<path d="M194.869 163.901C192.49 162.516 189.584 162.953 187.672 164.755L162.049 136.988L187.672 109.22C189.584 111.022 192.49 111.459 194.869 110.074C197.788 108.367 198.788 104.599 197.105 101.644C195.416 98.695 191.686 97.6848 188.76 99.3845C186.381 100.777 185.3 103.534 185.888 106.108L149.271 114.64L138.277 78.3406C140.777 77.5693 142.608 75.2486 142.608 72.4705C142.608 69.0644 139.872 66.3 136.5 66.3C133.128 66.3 130.392 69.0644 130.392 72.4705C130.392 75.2486 132.223 77.5693 134.723 78.3406L123.729 114.64L87.1117 106.108C87.6996 103.534 86.6252 100.77 84.2399 99.3845C81.3208 97.678 77.584 98.695 75.8947 101.644C74.2054 104.592 75.2123 108.367 78.1314 110.074C80.5099 111.459 83.4154 111.022 85.3277 109.22L110.951 136.988L85.3277 164.755C83.4154 162.953 80.5099 162.516 78.1314 163.901C75.2123 165.608 74.2122 169.376 75.8947 172.331C77.584 175.28 81.314 176.29 84.2399 174.591C86.6184 173.198 87.6996 170.441 87.1117 167.867L123.729 159.335L134.723 195.634C132.223 196.406 130.392 198.726 130.392 201.505C130.392 204.911 133.128 207.675 136.5 207.675C139.872 207.675 142.608 204.911 142.608 201.505C142.608 198.726 140.777 196.406 138.277 195.634L149.271 159.335L185.888 167.867C185.3 170.441 186.375 173.205 188.76 174.591C191.679 176.297 195.416 175.28 197.105 172.331C198.795 169.383 197.788 165.608 194.869 163.901ZM142.392 147.308L136.493 166.789L130.594 147.308L110.944 151.888L124.695 136.988L110.944 122.087L130.594 126.667L136.493 107.186L142.392 126.667L162.042 122.087L148.291 136.988L162.042 151.888L142.392 147.308Z" fill="black"/>
</svg>
