<svg width="272" height="273" viewBox="0 0 272 273" fill="none" xmlns="http://www.w3.org/2000/svg">
<path d="M201.541 98.2972L155.082 103.368L136.228 60.45L117.373 103.368L70.9141 98.2972L98.5191 136.144L70.9141 173.992L117.373 168.921L136.228 211.839L155.082 168.921L201.541 173.992L173.936 136.144L201.541 98.2972ZM186.808 165.452L150.836 161.528L136.236 194.76L121.635 161.528L85.6628 165.452L107.035 136.144L85.6628 106.837L121.635 110.761L136.236 77.5291L150.836 110.761L186.808 106.837L165.436 136.144L186.808 165.452Z" fill="black"/>
<path d="M173.936 114.293L147.113 117.221L136.228 92.4419L125.342 117.221L98.519 114.293L114.456 136.144L98.519 157.996L125.342 155.068L136.228 179.847L147.113 155.068L173.936 157.996L157.999 136.144L173.936 114.293ZM142.515 147.07L136.228 161.379L129.94 147.07L114.456 148.758L123.661 136.144L114.456 123.531L129.94 125.219L136.228 110.91L142.515 125.219L157.999 123.531L148.795 136.144L157.999 148.758L142.515 147.07Z" fill="black"/>
<path d="M139.215 130.956L136.236 124.167L133.248 130.956L125.897 130.156L130.269 136.144L125.897 142.133L133.248 141.325L136.236 148.114L139.215 141.325L146.566 142.133L142.195 136.144L146.566 130.156L139.215 130.956Z" fill="black"/>
</svg>
