<svg width="273" height="273" viewBox="0 0 273 273" fill="none" xmlns="http://www.w3.org/2000/svg">
<path d="M150.302 144.478L231.075 136.991L150.004 129.473L150.295 129.497L183.54 89.4543L143.499 122.701L136.013 41.925L128.526 122.701L88.4854 89.4543L121.731 129.497L122.022 129.473L40.9502 136.991L121.723 144.478L88.4775 184.521L128.518 151.274L136.005 232.05L143.491 151.274L183.532 184.521L150.302 144.478ZM139.98 148.061L136.013 190.868L132.046 148.061C131.7 144.298 128.707 141.305 124.944 140.959L82.1381 136.991L124.944 133.024C128.707 132.678 131.7 129.685 132.046 125.922L136.013 83.1145L139.98 125.922C140.326 129.685 143.319 132.678 147.082 133.024L189.888 136.991L147.082 140.959C143.319 141.305 140.333 144.298 139.98 148.061Z" fill="black"/>
</svg>
