<svg width="273" height="273" viewBox="0 0 273 273" fill="none" xmlns="http://www.w3.org/2000/svg">
<path d="M154.915 144.378L213.525 136.5L154.915 128.622L190.822 81.3456L143.841 117.479L136.013 58.5L128.184 117.479L81.2028 81.3456L117.11 128.622L58.5 136.5L117.11 144.378L81.2028 191.654L128.184 155.521L136.013 214.5L143.841 155.521L190.822 191.654L154.915 144.378ZM178.566 93.6792L145.142 127.313L144.186 120.121L178.566 93.6792ZM93.4516 93.6792L126.875 127.313L119.728 128.275L93.4516 93.6792ZM93.4516 179.321L126.867 145.695L127.823 152.887L93.4516 179.321ZM136.013 197.064V136.5L128.92 143.637L75.8348 136.5H136.013L128.92 129.363L136.013 75.9437V136.508L143.105 129.371L196.19 136.508H136.013L143.105 143.645L136.013 197.064ZM145.142 145.695L152.289 144.733L178.566 179.321L145.142 145.695Z" fill="black"/>
</svg>
