<svg width="273" height="272" viewBox="0 0 273 272" fill="none" xmlns="http://www.w3.org/2000/svg">
<path d="M171.152 145.604L219.375 136.482L171.152 127.361L208.341 95.4412L161.997 111.57L178.185 65.3944L146.142 102.448L136.988 54.3999L127.833 102.448L95.7906 65.3944L111.978 111.57L65.6409 95.4412L102.823 127.361L54.6001 136.482L102.823 145.604L65.6345 177.53L111.972 161.401L95.7842 207.577L127.826 170.523L136.981 218.571L146.136 170.523L178.178 207.577L161.991 161.401L208.334 177.53L171.152 145.604ZM189.877 136.482L165.82 141.031L160.52 136.482L165.82 131.934L189.877 136.482ZM142.863 158.338L136.988 151.541L131.112 158.338L129.431 149.522L120.928 152.477L123.895 144.005L115.047 142.33L121.868 136.476L115.047 130.622L123.895 128.947L120.928 120.475L129.425 123.431L131.106 114.615L136.981 121.411L142.856 114.615L144.538 123.431L153.041 120.475L150.074 128.947L158.922 130.622L152.101 136.476L158.922 142.33L150.081 144.005L153.047 152.477L144.544 149.522L142.863 158.338ZM182.794 110.137L164.248 126.061L157.375 124.762L159.683 118.182L182.794 110.137ZM163.436 90.8421L155.361 113.876L148.757 116.175L147.453 109.328L163.436 90.8421ZM136.988 83.7843L141.552 107.754L136.988 113.035L132.423 107.754L136.988 83.7843ZM110.539 90.8421L126.522 109.321L125.218 116.169L118.614 113.869L110.539 90.8421ZM91.1812 110.137L114.299 118.182L116.606 124.762L109.734 126.061L91.1812 110.137ZM84.0913 136.482L108.148 131.934L113.448 136.482L108.148 141.031L84.0913 136.482ZM91.1812 162.835L109.728 146.91L116.6 148.209L114.292 154.79L91.1812 162.835ZM110.539 182.129L118.614 159.096L125.218 156.796L126.522 163.644L110.539 182.129ZM136.988 189.187L132.423 165.217L136.988 159.936L141.552 165.217L136.988 189.187ZM163.436 182.129L147.453 163.644L148.757 156.796L155.361 159.096L163.436 182.129ZM157.369 148.209L164.241 146.91L182.794 162.835L159.677 154.79L157.369 148.209Z" fill="black"/>
</svg>
