<svg width="273" height="273" viewBox="0 0 273 273" fill="none" xmlns="http://www.w3.org/2000/svg">
<path d="M237.995 172.563C237.875 172.461 237.745 172.367 237.592 172.302L201.882 157.189L199.995 135.54C199.791 133.209 198.02 131.934 196.253 131.77L80.8514 82.9371C80.0864 82.2644 79.0988 81.914 78.1391 81.9C78.0927 81.9 78.051 81.9 78.0092 81.9047C76.15 81.9421 74.1841 83.2408 73.9709 85.7028L71.138 118.152C71.087 118.708 70.6558 119.147 70.104 119.194L37.8991 122.048C35.4186 122.268 34.125 124.305 34.125 126.202C34.125 127.664 34.8993 129.196 36.3876 129.93C36.5128 130.046 36.6565 130.149 36.8234 130.219L72.0931 145.145L73.9755 166.705C74.1795 169.036 75.9506 170.312 77.7171 170.475L193.133 219.318C193.907 219.995 194.909 220.35 195.878 220.35C197.76 220.35 199.782 219.042 200 216.547L202.832 184.093C202.856 183.831 202.967 183.603 203.134 183.425C203.171 183.392 203.213 183.364 203.245 183.327C203.417 183.182 203.63 183.075 203.871 183.051L236.076 180.197C238.556 179.977 239.85 177.94 239.85 176.044C239.836 174.731 239.201 173.362 237.995 172.563ZM195.799 134.755V134.765C195.822 134.765 195.85 134.76 195.868 134.76C196.114 134.76 196.916 134.835 197.004 135.807L198.757 155.867L119.812 122.46C119.747 122.432 119.682 122.417 119.612 122.399C119.214 122.226 118.778 122.09 118.282 122.048L86.0767 119.194C85.525 119.143 85.0891 118.708 85.0428 118.152L82.3119 86.8333L195.294 134.643C195.456 134.713 195.627 134.746 195.799 134.755ZM46.7269 131.14L70.0994 133.209C70.6511 133.26 71.087 133.695 71.1333 134.251L71.7871 141.744L46.7269 131.14ZM74.1192 133.985C73.943 131.966 72.362 130.373 70.359 130.196L38.1541 127.341C37.1897 127.257 37.1155 126.444 37.1155 126.197C37.1155 125.949 37.1897 125.141 38.1541 125.052L70.359 122.198C72.362 122.02 73.943 120.427 74.1192 118.409L76.9521 85.9551C77.017 85.2076 77.5085 84.9927 77.8423 84.9319L79.0803 85.4552C79.1498 85.5906 79.2054 85.7495 79.224 85.9551L82.0569 118.409C82.2331 120.427 83.8141 122.02 85.8171 122.198L118.022 125.052C118.986 125.136 119.061 125.949 119.061 126.197C119.061 126.444 118.986 127.253 118.022 127.341L85.8171 130.196C83.8141 130.373 82.2331 131.966 82.0569 133.985L79.224 166.439C79.1405 167.406 78.3431 167.485 78.0927 167.485C78.088 167.485 78.0834 167.485 78.0788 167.485C77.8238 167.485 77.0356 167.401 76.9521 166.439L74.1192 133.985ZM197.004 216.281C196.939 217.028 196.448 217.243 196.114 217.304L81.4495 168.784C81.8482 168.219 82.1357 167.537 82.2052 166.705L85.0196 134.456L199.967 183.098C199.902 183.336 199.86 183.579 199.837 183.831L197.004 216.281ZM235.802 177.188L203.597 180.043C202.962 180.099 202.378 180.309 201.859 180.617L89.1739 132.933L118.282 130.355C120.558 130.154 121.824 128.421 122.019 126.669L236.433 175.086C236.54 175.133 236.646 175.161 236.753 175.18L236.813 175.763C236.836 175.88 236.841 175.978 236.841 176.044C236.841 176.291 236.767 177.104 235.802 177.188Z" fill="black"/>
</svg>
