<svg width="272" height="273" viewBox="0 0 272 273" fill="none" xmlns="http://www.w3.org/2000/svg">
<path d="M125.359 70.8079L136.403 136.903L147.446 70.8079C148.113 66.8311 145.055 63.2075 141.038 63.2075H131.761C127.75 63.2075 124.692 66.8311 125.359 70.8079Z" fill="black"/>
<path d="M82.0295 98.006L136.403 136.903L97.6478 82.3302C95.3178 79.0476 90.6032 78.6517 87.7635 81.5019L81.2042 88.0852C78.3645 90.9354 78.7589 95.6674 82.0295 98.006Z" fill="black"/>
<path d="M70.5494 147.987L136.403 136.903L70.5494 125.819C66.5871 125.15 62.9768 128.219 62.9768 132.251V141.562C62.9768 145.588 66.5871 148.657 70.5494 147.987Z" fill="black"/>
<path d="M97.6478 191.476L136.403 136.903L82.0295 175.801C78.7589 178.139 78.3645 182.871 81.2042 185.721L87.7635 192.305C90.6032 195.155 95.3178 194.759 97.6478 191.476Z" fill="black"/>
<path d="M147.446 202.993L136.403 136.897L125.359 202.993C124.692 206.969 127.75 210.593 131.767 210.593H141.044C145.061 210.593 148.113 206.969 147.446 202.993Z" fill="black"/>
<path d="M190.776 175.794L136.403 136.897L175.157 191.47C177.487 194.753 182.202 195.149 185.042 192.298L191.601 185.715C194.441 182.865 194.052 178.139 190.776 175.794Z" fill="black"/>
<path d="M202.256 125.813L136.403 136.897L202.256 147.981C206.218 148.651 209.828 145.582 209.828 141.55V132.238C209.828 128.213 206.218 125.149 202.256 125.813Z" fill="black"/>
<path d="M175.157 82.3241L136.403 136.897L190.776 97.9999C194.046 95.6613 194.441 90.9293 191.601 88.0791L185.042 81.4957C182.202 78.6456 177.487 79.0415 175.157 82.3241Z" fill="black"/>
</svg>
