<svg width="273" height="273" viewBox="0 0 273 273" fill="none" xmlns="http://www.w3.org/2000/svg">
<path d="M225.672 133.534H153.649C150.575 133.534 149.038 129.815 151.207 127.645L185.542 93.3109C186.892 91.9601 186.892 89.7776 185.542 88.4335C184.191 87.0827 182.008 87.0827 180.664 88.4335L146.33 122.768C144.154 124.944 140.441 123.4 140.441 120.326V48.3034C140.441 46.4004 138.897 44.85 136.988 44.85C135.085 44.85 133.534 46.3937 133.534 48.3034V120.326C133.534 123.4 129.815 124.937 127.645 122.768L93.311 88.4335C91.9602 87.0827 89.7777 87.0827 88.4336 88.4335C87.0828 89.7842 87.0828 91.9668 88.4336 93.3109L122.768 127.645C124.944 129.821 123.4 133.534 120.326 133.534H48.3035C46.4005 133.534 44.8501 135.078 44.8501 136.988C44.8501 138.891 46.3938 140.441 48.3035 140.441H120.326C123.4 140.441 124.937 144.16 122.768 146.33L88.4336 180.664C87.0828 182.015 87.0828 184.197 88.4336 185.541C89.7843 186.892 91.9669 186.892 93.311 185.541L127.645 151.207C129.821 149.031 133.534 150.575 133.534 153.649V225.672C133.534 227.575 135.078 229.125 136.988 229.125C138.891 229.125 140.441 227.581 140.441 225.672V153.649C140.441 150.575 144.161 149.038 146.33 151.207L180.664 185.541C182.015 186.892 184.198 186.892 185.542 185.541C186.892 184.191 186.892 182.008 185.542 180.664L151.207 146.33C149.031 144.154 150.575 140.441 153.649 140.441H225.672C227.575 140.441 229.125 138.897 229.125 136.988C229.118 135.084 227.575 133.534 225.672 133.534Z" fill="black"/>
</svg>
