<svg width="272" height="273" viewBox="0 0 272 273" fill="none" xmlns="http://www.w3.org/2000/svg">
<path d="M146.116 142.743L231.187 139.042C233.795 138.931 233.795 135.034 231.187 134.923L146.116 131.221C145.193 131.182 144.406 130.517 144.212 129.605L137.782 100.095C137.298 97.8794 134.141 97.9575 133.773 100.199L129.086 128.595C128.931 129.546 128.137 130.263 127.181 130.315L40.794 134.929C38.2116 135.066 38.2116 138.911 40.794 139.048L127.181 143.662C128.137 143.714 128.931 144.431 129.086 145.383L133.773 173.778C134.141 176.013 137.298 176.098 137.782 173.882L144.212 144.373C144.412 143.447 145.193 142.782 146.116 142.743Z" fill="black"/>
</svg>
