<svg width="273" height="273" viewBox="0 0 273 273" fill="none" xmlns="http://www.w3.org/2000/svg">
<path d="M192.075 123.631C192.075 119.603 181.314 116.078 165.196 114.118C176.206 116.127 183.29 119.016 183.29 121.443C183.29 125.411 164.378 128.668 140.258 129.011L136.012 32.175L131.767 129.011C107.647 128.668 88.735 125.411 88.735 121.443C88.735 119.016 95.8139 116.127 106.829 114.118C90.7105 116.073 79.95 119.603 79.95 123.631C79.95 129.494 102.763 134.297 131.717 134.735L136.012 240.825L140.308 134.735C169.257 134.297 192.075 129.494 192.075 123.631Z" fill="black"/>
</svg>
