<svg width="272" height="273" viewBox="0 0 272 273" fill="none" xmlns="http://www.w3.org/2000/svg">
<path d="M171.97 143.083L219.543 136.991L171.97 130.899C169.394 115.315 157.11 102.986 141.583 100.4L135.514 52.65L129.445 100.4C113.919 102.986 101.642 115.315 99.0587 130.899L51.4858 136.991L99.0587 143.083C101.635 158.667 113.919 170.989 129.445 173.575L135.514 221.325L141.583 173.575C157.117 170.989 169.394 158.667 171.97 143.083ZM168.47 130.453L145.028 127.449L142.035 103.913C155.346 106.554 165.845 117.092 168.47 130.453ZM129.008 103.913L126.015 127.442L102.572 130.446C105.197 117.092 115.696 106.554 129.008 103.913ZM102.565 143.529L126.008 146.533L129.001 170.062C115.696 167.428 105.197 156.883 102.565 143.529ZM142.035 170.062L145.028 146.533L168.47 143.529C165.845 156.883 155.346 167.428 142.035 170.062Z" fill="black"/>
</svg>
