<svg width="273" height="273" viewBox="0 0 273 273" fill="none" xmlns="http://www.w3.org/2000/svg">
<path d="M209.305 128.719C206.601 128.227 203.761 127.77 200.826 127.343L209.31 125.065L184.485 118.389L177.801 93.6L171.116 118.389L152.257 123.459C147.09 123.313 141.828 123.238 136.5 123.238C109.016 123.238 83.1561 125.185 63.6944 128.719C42.7802 132.518 32.1748 137.547 32.1748 143.67C32.1748 149.794 42.7802 154.823 63.6944 158.622C67.5295 159.32 71.6259 159.952 75.9234 160.519L86.8404 163.456L91.4042 180.375L95.968 163.456L98.4711 162.783C110.418 163.646 123.266 164.103 136.5 164.103C163.983 164.103 189.843 162.156 209.305 158.622C230.219 154.823 240.825 149.794 240.825 143.67C240.825 137.547 230.219 132.518 209.305 128.719ZM136.5 160.459C126.925 160.459 117.923 160.228 109.529 159.812L112.907 158.903L95.9579 154.346L91.3942 137.422L86.8303 154.346L77.0593 156.971C50.7117 153.488 35.8138 148.042 35.8138 143.67C35.8138 136.659 74.1139 126.887 136.495 126.887C142.592 126.887 148.447 126.982 154.072 127.158L171.111 131.74L177.795 156.529L184.48 131.74L191.587 129.828C220.634 133.266 237.176 139.063 237.176 143.67C237.176 150.682 198.876 160.459 136.5 160.459Z" fill="black"/>
</svg>
