<svg width="273" height="272" viewBox="0 0 273 272" fill="none" xmlns="http://www.w3.org/2000/svg">
<path d="M58.5 74.0047L118.474 114.324C121.515 116.368 124.106 118.931 126.181 121.836L87.8129 147.631L129.438 127.608C130.719 130.617 131.528 133.842 131.775 137.17L136.988 208.857L142.2 137.17C142.44 133.834 143.256 130.617 144.537 127.601L186.162 147.623L147.794 121.828C149.876 118.931 152.46 116.368 155.501 114.324L215.475 74.0047L150.288 105.365C147.098 106.895 143.713 107.846 140.268 108.21L136.988 63.1428L133.707 108.21C130.27 107.839 126.877 106.895 123.687 105.365L58.5 74.0047Z" fill="black"/>
</svg>
