<svg width="301" height="301" viewBox="0 0 301 301" fill="none" xmlns="http://www.w3.org/2000/svg">
<path d="M120.38 62.1002L92.8799 11.4502L109.25 66.7202C112.83 64.9502 116.55 63.4102 120.37 62.1002H120.38Z" fill="#282828"/>
<path d="M66.7202 109.25L11.4502 92.8701L62.1002 120.37C63.4002 116.54 64.9502 112.83 66.7202 109.25Z" fill="#282828"/>
<path d="M150.45 57.15C152.47 57.15 154.48 57.2201 156.47 57.3501L150.45 0L144.43 57.3501C146.42 57.2201 148.43 57.15 150.45 57.15Z" fill="#282828"/>
<path d="M88.8798 80.3602L44.0698 44.0703L80.3598 88.8802C83.0098 85.8602 85.8598 83.0202 88.8798 80.3602Z" fill="#282828"/>
<path d="M300.9 150.45L243.55 144.43C243.68 146.42 243.75 148.43 243.75 150.45C243.75 152.47 243.68 154.48 243.55 156.47L300.9 150.45Z" fill="#282828"/>
<path d="M238.8 120.37L289.45 92.8701L234.18 109.25C235.95 112.83 237.49 116.55 238.8 120.37Z" fill="#282828"/>
<path d="M191.65 66.7202L208.02 11.4502L180.52 62.1002C184.35 63.4002 188.06 64.9502 191.64 66.7202H191.65Z" fill="#282828"/>
<path d="M220.55 88.87L256.84 44.0601L212.03 80.3501C215.05 83.0001 217.9 85.85 220.55 88.87Z" fill="#282828"/>
<path d="M212.03 220.54L256.84 256.83L220.55 212.02C217.9 215.04 215.05 217.88 212.03 220.54Z" fill="#282828"/>
<path d="M180.53 238.79L208.03 289.44L191.66 234.17C188.08 235.94 184.36 237.48 180.54 238.79H180.53Z" fill="#282828"/>
<path d="M150.45 243.75C148.43 243.75 146.42 243.68 144.43 243.55L150.45 300.9L156.47 243.55C154.48 243.68 152.47 243.75 150.45 243.75Z" fill="#282828"/>
<path d="M234.18 191.65L289.45 208.03L238.8 180.53C237.5 184.36 235.95 188.07 234.18 191.65Z" fill="#282828"/>
<path d="M57.15 150.45C57.15 148.43 57.22 146.42 57.35 144.43L0 150.45L57.35 156.47C57.22 154.48 57.15 152.47 57.15 150.45Z" fill="#282828"/>
<path d="M109.25 234.18L92.8799 289.45L120.38 238.8C116.55 237.5 112.84 235.95 109.26 234.18H109.25Z" fill="#282828"/>
<path d="M62.11 180.53L11.46 208.03L66.73 191.65C64.96 188.07 63.42 184.35 62.11 180.53Z" fill="#282828"/>
<path d="M80.3598 212.02L44.0698 256.83L88.8798 220.54C85.8598 217.89 83.0098 215.04 80.3598 212.02Z" fill="#282828"/>
</svg>
