<svg width="296" height="339" viewBox="0 0 296 339" fill="none" xmlns="http://www.w3.org/2000/svg">
<path d="M280.224 308.137C250.644 337.717 170.814 305.837 101.914 236.937C79.8636 214.887 61.6036 191.707 47.9436 169.427C61.6136 147.137 79.8636 123.967 101.914 101.917C170.814 33.0166 250.644 1.13658 280.224 30.7166C290.734 41.2266 293.474 58.0866 289.564 78.5366C298.354 49.7766 296.904 25.8266 283.074 11.9966C250.944 -20.1334 164.214 14.4966 89.3535 89.3566C69.0535 109.657 51.7135 130.837 37.8635 151.557C17.2535 111.407 13.1736 76.1766 30.7136 58.6266C41.2236 48.1166 58.0836 45.3766 78.5336 49.2866C49.7736 40.4966 25.8236 41.9466 11.9936 55.7766C-8.89645 76.6666 -1.55636 120.637 26.7036 169.427C-1.55636 218.207 -8.89645 262.177 11.9936 283.077C25.8236 296.907 49.7736 298.357 78.5336 289.567C58.0836 293.477 41.2236 290.737 30.7136 280.227C13.1636 262.677 17.2535 227.447 37.8635 187.297C51.7235 208.017 69.0535 229.197 89.3535 249.497C164.214 324.357 250.944 358.987 283.074 326.857C296.904 313.027 298.354 289.077 289.564 260.317C293.474 280.767 290.734 297.627 280.224 308.137Z" fill="#282828"/>
</svg>
