<svg width="189" height="187" viewBox="0 0 189 187" fill="none" xmlns="http://www.w3.org/2000/svg">
<path d="M40.0996 173L94.4998 118.6L148.9 173C157.86 181.96 170.02 187 182.7 187L94.4998 98.7998L6.2998 187C18.9798 187 31.1396 181.96 40.0996 173Z" fill="#282828"/>
<path d="M40.0996 14L94.4998 68.4L148.9 14C157.86 5.04 170.02 0 182.7 0L94.4998 88.2L6.2998 0C18.9798 0 31.1396 5.04 40.0996 14Z" fill="#282828"/>
<path d="M14 148.5L68.3999 94.0999L14 39.6999C5.04 30.7399 0 18.5799 0 5.8999L88.2 94.0999L0 182.3C0 169.62 5.04 157.46 14 148.5Z" fill="#282828"/>
<path d="M175 148.5L120.6 94.0999L175 39.6999C183.96 30.7399 189 18.5799 189 5.8999L100.8 94.0999L189 182.3C189 169.62 183.96 157.46 175 148.5Z" fill="#282828"/>
</svg>
