<svg width="263" height="263" viewBox="0 0 263 263" fill="none" xmlns="http://www.w3.org/2000/svg">
<path d="M221.9 0H41.09C18.39 0 0 18.4 0 41.09V221.9C0 244.6 18.4 262.99 41.09 262.99H221.9C244.6 262.99 262.99 244.59 262.99 221.9V41.09C262.99 18.39 244.59 0 221.9 0ZM57.1 6H203.84C220.24 6 228.45 25.83 216.86 37.43L143.49 110.8C136.3 117.99 124.64 117.99 117.46 110.8L44.09 37.43C32.49 25.83 40.71 6 57.11 6H57.1ZM8.20996 203.79V57.05C8.20996 40.65 28.04 32.44 39.64 44.03L113.01 117.4C120.2 124.59 120.2 136.25 113.01 143.43L39.64 216.8C28.04 228.4 8.20996 220.18 8.20996 203.78V203.79ZM203.84 257H57.1C40.7 257 32.49 237.17 44.08 225.57L117.45 152.2C124.64 145.01 136.3 145.01 143.48 152.2L216.85 225.57C228.45 237.17 220.23 257 203.83 257H203.84ZM252.72 203.79C252.72 220.19 232.89 228.4 221.29 216.81L147.92 143.44C140.73 136.25 140.73 124.59 147.92 117.41L221.29 44.04C232.89 32.44 252.72 40.66 252.72 57.06V203.8V203.79Z" fill="#282828"/>
</svg>
