<svg width="202" height="202" viewBox="0 0 202 202" fill="none" xmlns="http://www.w3.org/2000/svg">
<path d="M39.8401 0H0V39.84H39.8401V0Z" fill="#282828"/>
<path d="M120.92 0H81.0801V39.84H120.92V0Z" fill="#282828"/>
<path d="M202 0H162.16V39.84H202V0Z" fill="#282828"/>
<path d="M80.3799 40.54H40.54V80.38H80.3799V40.54Z" fill="#282828"/>
<path d="M161.46 40.54H121.62V80.38H161.46V40.54Z" fill="#282828"/>
<path d="M39.8401 81.0801H0V120.92H39.8401V81.0801Z" fill="#282828"/>
<path d="M120.92 81.0801H81.0801V120.92H120.92V81.0801Z" fill="#282828"/>
<path d="M202 81.0801H162.16V120.92H202V81.0801Z" fill="#282828"/>
<path d="M39.8401 162.16H0V202H39.8401V162.16Z" fill="#282828"/>
<path d="M120.92 162.16H81.0801V202H120.92V162.16Z" fill="#282828"/>
<path d="M202 162.16H162.16V202H202V162.16Z" fill="#282828"/>
<path d="M80.3799 121.62H40.54V161.46H80.3799V121.62Z" fill="#282828"/>
<path d="M161.46 121.62H121.62V161.46H161.46V121.62Z" fill="#282828"/>
</svg>
