<svg width="225" height="225" viewBox="0 0 225 225" fill="none" xmlns="http://www.w3.org/2000/svg">
<path d="M112.5 225C50.47 225 0 174.53 0 112.5C0 50.47 50.47 0 112.5 0C174.53 0 225 50.47 225 112.5C225 174.53 174.53 225 112.5 225ZM112.5 6.84998C54.25 6.84998 6.84998 54.24 6.84998 112.5C6.84998 170.76 54.24 218.15 112.5 218.15C170.76 218.15 218.15 170.76 218.15 112.5C218.15 54.24 170.76 6.84998 112.5 6.84998Z" fill="#282828"/>
<path d="M112.5 199.87C64.2499 199.87 25.1299 160.75 25.1299 112.5C25.1299 64.2499 64.2499 25.1299 112.5 25.1299V199.88V199.87Z" fill="#282828"/>
</svg>
