<svg width="489" height="489" viewBox="0 0 489 489" fill="none" xmlns="http://www.w3.org/2000/svg">
<path d="M489 244.5C262.9 244.5 257.51 231.49 417.39 71.61C257.52 231.48 244.5 226.09 244.5 0C244.5 226.1 231.49 231.49 71.61 71.61C231.48 231.48 226.09 244.5 0 244.5C226.1 244.5 231.49 257.51 71.61 417.39C231.48 257.52 244.5 262.91 244.5 489C244.5 262.9 257.51 257.51 417.39 417.39C257.52 257.52 262.91 244.5 489 244.5ZM244.5 363.77C239.54 253.48 235.52 249.46 125.23 244.5C235.52 239.54 239.54 235.52 244.5 125.23C249.46 235.52 253.48 239.54 363.77 244.5C253.48 249.46 249.46 253.48 244.5 363.77Z" fill="#282828"/>
</svg>
