<svg width="662" height="308" viewBox="0 0 662 308" fill="none" xmlns="http://www.w3.org/2000/svg">
<path d="M331 0C148.19 0 0 68.9301 0 153.95C0 238.97 148.19 307.9 331 307.9C513.81 307.9 662 238.97 662 153.95C662 68.9301 513.81 0 331 0ZM331 300.8C164.55 300.8 29.61 235.05 29.61 153.95C29.61 72.8501 164.55 7.09998 331 7.09998C497.45 7.09998 632.39 72.8501 632.39 153.95C632.39 235.05 497.45 300.8 331 300.8Z" fill="#282828"/>
<path d="M331 25.8901C178.93 25.8901 55.6602 83.2301 55.6602 153.96C55.6602 224.69 178.93 282.03 331 282.03C483.07 282.03 606.34 224.69 606.34 153.96C606.34 83.2301 483.07 25.8901 331 25.8901ZM331 276.11C192.54 276.11 80.2902 221.42 80.2902 153.96C80.2902 86.5001 192.54 31.8102 331 31.8102C469.46 31.8102 581.71 86.5001 581.71 153.96C581.71 221.42 469.46 276.11 331 276.11Z" fill="#282828"/>
</svg>
