<svg width="455" height="455" viewBox="0 0 455 455" fill="none" xmlns="http://www.w3.org/2000/svg">
<path d="M227.29 176.2C199.09 176.2 176.2 199.09 176.2 227.29C176.2 242.79 183.11 256.68 194.02 266.05C194.15 266.19 194.29 266.3 194.44 266.4C203.32 273.87 214.78 278.37 227.29 278.37C227.4 278.37 227.51 278.37 227.61 278.37C239.88 278.29 251.13 273.88 259.91 266.59C260.4 266.43 260.87 266.16 261.46 265.77C261.75 265.48 261.93 265.12 262.01 264.75C272.07 255.42 278.38 242.09 278.38 227.29C278.38 199.09 255.49 176.2 227.29 176.2ZM272.98 224.63H250.45C250.17 216.48 248.59 208.6 245.93 201.44C250.58 199.59 254.9 197.07 258.66 194.02C266.91 201.81 272.28 212.61 272.97 224.64L272.98 224.63ZM254.62 190.6C251.35 193.14 247.77 195.19 243.99 196.73C241.45 191.22 238.23 186.25 234.45 182.07C241.92 183.25 248.8 186.25 254.62 190.6ZM209.43 224.63C209.71 217.11 211.16 209.82 213.57 203.22C218.01 204.43 222.63 205.06 227.29 205.06C231.95 205.06 236.55 204.39 240.94 203.15C243.39 209.75 244.87 217.06 245.15 224.64H209.43V224.63ZM245.14 229.94C244.86 237.54 243.38 244.92 240.92 251.57C236.61 250.43 232.13 249.84 227.61 249.84C222.86 249.84 218.15 250.49 213.63 251.75C211.14 245.06 209.69 237.64 209.41 229.94H245.13H245.14ZM227.29 182.17C232 186.46 235.98 192.03 238.98 198.45C235.09 199.53 231.05 200.08 226.96 200.08C222.87 200.08 219.2 199.57 215.48 198.58C218.49 192.02 222.51 186.36 227.3 182.16L227.29 182.17ZM220.01 182.09C216.2 186.28 212.97 191.33 210.44 196.94C206.6 195.43 202.96 193.39 199.63 190.85C205.49 186.39 212.45 183.3 220.02 182.08L220.01 182.09ZM195.62 194.29C199.56 197.36 203.93 199.79 208.55 201.58C205.94 208.72 204.4 216.58 204.12 224.64H181.59C182.28 212.75 187.53 202.06 195.62 194.29ZM181.59 229.94H204.12C204.41 238.18 206.02 246.16 208.74 253.39C204.18 255.17 199.86 257.58 195.97 260.61C187.69 252.82 182.29 241.99 181.6 229.94H181.59ZM200.01 264.01C203.3 261.52 206.88 259.51 210.67 258.01C213.2 263.45 216.39 268.36 220.13 272.51C212.68 271.33 205.82 268.35 200.01 264.02V264.01ZM227.29 272.4C222.5 268.17 218.55 262.68 215.58 256.37C219.37 255.35 223.31 254.82 227.29 254.82C231.27 254.82 235.15 255.35 238.93 256.36C235.94 262.76 231.98 268.28 227.29 272.41V272.4ZM234.56 272.48C238.28 268.38 241.45 263.48 243.96 258.02C247.72 259.52 251.29 261.52 254.56 264C248.78 268.31 241.96 271.28 234.56 272.47V272.48ZM258.9 260.34C254.94 257.32 250.58 254.92 245.95 253.18C248.6 245.99 250.16 238.07 250.45 229.94H272.98C272.29 241.85 267.02 252.57 258.9 260.34Z" fill="#282828"/>
<path d="M454.58 227.29C244.4 227.29 239.39 215.19 388.01 66.57C239.39 215.19 227.29 210.18 227.29 0C227.29 210.18 215.19 215.19 66.57 66.57C215.19 215.19 210.18 227.29 0 227.29C210.18 227.29 215.19 239.39 66.57 388.01C215.19 239.39 227.29 244.4 227.29 454.58C227.29 244.4 239.39 239.39 388.01 388.01C239.39 239.39 244.4 227.29 454.58 227.29ZM227.29 286.9C194.37 286.9 167.68 260.21 167.68 227.29C167.68 194.37 194.37 167.68 227.29 167.68C260.21 167.68 286.9 194.37 286.9 227.29C286.9 260.21 260.21 286.9 227.29 286.9Z" fill="#282828"/>
</svg>
