<svg width="592" height="468" viewBox="0 0 592 468" fill="none" xmlns="http://www.w3.org/2000/svg">
<path d="M0.0100098 467.75C11.46 430.64 122.66 225.68 296.1 168.24C191.49 242.35 187.36 307.46 196.77 330.29C206.69 354.36 263.49 376 297.58 308.43C301.54 294.13 283.12 266.52 244.48 316.24C255.03 171.09 493.08 188.39 591.4 0C515.46 201.69 430.37 248.04 392.85 242.39C389.74 245.08 426.68 218.58 428.37 195.36C411.37 188.29 327.56 217.22 335.37 270.32C340.33 282.35 363.13 289.85 388.05 268.31C340.56 439.96 133.32 319.84 0 467.75H0.0100098Z" fill="#282828"/>
</svg>
