<svg width="636" height="175" viewBox="0 0 636 175" fill="none" xmlns="http://www.w3.org/2000/svg">
<path d="M627.521 0H379.251C374.771 0 370.511 1.94998 367.581 5.34998L347.251 28.97C342.971 33.94 336.741 36.8 330.181 36.8H90.1008C85.2908 36.8 80.7308 38.89 77.5908 42.54L68.8908 52.65C64.3608 57.92 68.1008 66.07 75.0508 66.07H325.541C326.671 66.07 327.781 65.98 328.881 65.82L313.811 83.33C309.531 88.3 303.301 91.16 296.741 91.16H56.6508C51.8408 91.16 47.2808 93.25 44.1408 96.9L35.4408 107.01C30.9108 112.28 34.6508 120.43 41.6008 120.43H292.091C293.221 120.43 294.331 120.34 295.431 120.18L280.361 137.69C276.081 142.66 269.851 145.52 263.291 145.52H23.1908C18.3808 145.52 13.8208 147.61 10.6808 151.26L1.98078 161.37C-2.54922 166.64 1.19078 174.79 8.14078 174.79H258.631C265.421 174.79 271.871 171.83 276.301 166.68L293.541 146.65C298.271 141.16 305.161 137.99 312.411 137.99H542.591C549.281 137.99 555.641 135.07 560.001 130L566.761 122.14C571.291 116.87 567.551 108.72 560.601 108.72H312.841L326.991 92.29C331.721 86.8 338.611 83.63 345.861 83.63H576.041C582.731 83.63 589.091 80.71 593.451 75.64L600.211 67.78C604.741 62.51 601.001 54.36 594.051 54.36H346.291L360.441 37.93C365.171 32.44 372.061 29.27 379.311 29.27H609.491C616.181 29.27 622.541 26.35 626.901 21.28L633.661 13.42C638.191 8.14998 634.451 0 627.501 0H627.521Z" fill="#282828"/>
</svg>
