<svg width="611" height="265" viewBox="0 0 611 265" fill="none" xmlns="http://www.w3.org/2000/svg">
<path d="M473.22 66.25C455.2 67.25 346.06 88.5401 326.52 85.1801C292.17 79.2601 327.75 0 288.66 0C120.09 0 0 55.65 0 130.13C0 204.61 136.65 265 305.22 265C473.79 265 610.44 204.62 610.44 130.13C610.44 82.74 558.39 61.51 473.21 66.25H473.22ZM276.84 255.53C131.79 255.53 14.21 202.7 14.21 137.52C14.21 72.34 117.54 23.65 262.59 23.65C296.22 23.65 265.61 93.0101 295.17 98.1801C311.98 101.12 405.89 82.49 421.4 81.62C494.69 77.48 539.48 96.05 539.48 137.52C539.48 202.69 421.9 255.53 276.85 255.53H276.84Z" fill="#282828"/>
</svg>
