<svg width="847" height="54" viewBox="0 0 847 54" fill="none" xmlns="http://www.w3.org/2000/svg">
<path d="M544.486 7.87L529.426 17.07C528.336 17.73 527.086 18.09 525.816 18.09H266.716C259.716 18.09 252.856 20.02 246.886 23.67L222.826 38.37C221.736 39.03 220.486 39.39 219.216 39.39H6.93632C5.66632 39.39 4.41634 39.74 3.32634 40.41C-2.64366 44.06 -0.0536785 53.24 6.93632 53.24H198.516H289.036H492.726C500.896 53.24 508.906 50.99 515.876 46.73L533.176 36.16C534.266 35.5 535.516 35.14 536.786 35.14H793.426C802.026 35.14 810.466 32.77 817.806 28.28L843.096 12.83C849.066 9.18 846.476 0 839.486 0H572.516C562.626 0 552.926 2.73 544.486 7.89V7.87Z" fill="#282828"/>
</svg>
