<svg width="489" height="282" viewBox="0 0 489 282" fill="none" xmlns="http://www.w3.org/2000/svg">
<path d="M247.95 0C186.81 0 131.02 13.44 88.64 35.54L56.91 49.58L42.03 22.46L26.67 67.75L0 88.47L18.23 102.18L13.3 136.67L39.27 111.36L70.66 117.68L66.01 79.56L97.15 35.28C136.12 19.54 184.61 10.19 237.2 10.19C365.74 10.19 469.93 65.97 469.93 134.77C469.93 203.57 365.73 259.35 237.2 259.35C128 259.35 36.38 219.09 11.28 164.78C30.53 231.32 129.16 282 247.96 282C380.56 282 488.06 218.87 488.06 141C488.06 63.13 380.57 0 247.96 0H247.95Z" fill="#282828"/>
</svg>
