<svg width="303" height="116" viewBox="0 0 303 116" fill="none" xmlns="http://www.w3.org/2000/svg">
<path d="M283.719 0.0159084C274.819 0.575908 267.549 7.70599 266.829 16.596C266.829 16.676 266.819 16.746 266.809 16.826C266.189 25.876 262.839 34.526 256.979 41.456L230.939 72.2759C227.479 76.3659 222.629 78.9759 217.339 79.7959C217.279 79.7959 217.219 79.816 217.159 79.826C209.009 81.166 202.709 87.986 202.059 96.216C201.179 107.326 210.329 116.536 221.409 115.766C230.409 115.136 237.659 107.806 238.199 98.7959C238.199 98.7159 238.199 98.6259 238.209 98.5459C238.699 87.8259 242.589 77.546 249.509 69.356L271.369 43.496C275.059 39.136 280.389 36.556 286.089 36.186C286.159 36.186 286.219 36.1859 286.289 36.1759C295.529 35.4759 302.839 27.706 302.999 18.436C303.179 7.89595 294.369 -0.624072 283.729 0.0359279L283.719 0.0159084Z" fill="#282828"/>
<path d="M233.219 0.0159084C224.319 0.575908 217.049 7.70599 216.329 16.596C216.329 16.676 216.319 16.746 216.309 16.826C215.689 25.876 212.339 34.526 206.479 41.456L180.439 72.2759C176.979 76.3659 172.129 78.9759 166.839 79.7959C166.779 79.7959 166.719 79.816 166.659 79.826C158.509 81.166 152.209 87.986 151.559 96.216C150.679 107.326 159.829 116.536 170.909 115.766C179.909 115.136 187.159 107.806 187.699 98.7959C187.699 98.7159 187.699 98.6259 187.709 98.5459C188.199 87.8259 192.089 77.546 199.009 69.356L220.869 43.496C224.559 39.136 229.889 36.556 235.589 36.186C235.659 36.186 235.719 36.1859 235.789 36.1759C245.029 35.4759 252.339 27.706 252.499 18.436C252.679 7.89595 243.869 -0.624072 233.229 0.0359279L233.219 0.0159084Z" fill="#282828"/>
<path d="M182.719 0.0159084C173.819 0.575908 166.549 7.70599 165.829 16.596C165.829 16.676 165.819 16.746 165.809 16.826C165.189 25.876 161.839 34.526 155.979 41.456L129.939 72.2759C126.479 76.3659 121.629 78.9759 116.339 79.7959C116.279 79.7959 116.219 79.816 116.159 79.826C108.009 81.166 101.709 87.986 101.059 96.216C100.179 107.326 109.329 116.536 120.409 115.766C129.409 115.136 136.659 107.806 137.199 98.7959C137.199 98.7159 137.199 98.6259 137.209 98.5459C137.699 87.8259 141.589 77.546 148.509 69.356L170.369 43.496C174.059 39.136 179.389 36.556 185.089 36.186C185.159 36.186 185.219 36.1859 185.289 36.1759C194.529 35.4759 201.839 27.706 201.999 18.436C202.179 7.89595 193.369 -0.624072 182.729 0.0359279L182.719 0.0159084Z" fill="#282828"/>
<path d="M233.219 0.0159084C224.319 0.575908 217.049 7.70599 216.329 16.596C216.329 16.676 216.319 16.746 216.309 16.826C215.689 25.876 212.339 34.526 206.479 41.456L180.439 72.2759C176.979 76.3659 172.129 78.9759 166.839 79.7959C166.779 79.7959 166.719 79.816 166.659 79.826C158.509 81.166 152.209 87.986 151.559 96.216C150.679 107.326 159.829 116.536 170.909 115.766C179.909 115.136 187.159 107.806 187.699 98.7959C187.699 98.7159 187.699 98.6259 187.709 98.5459C188.199 87.8259 192.089 77.546 199.009 69.356L220.869 43.496C224.559 39.136 229.889 36.556 235.589 36.186C235.659 36.186 235.719 36.1859 235.789 36.1759C245.029 35.4759 252.339 27.706 252.499 18.436C252.679 7.89595 243.869 -0.624072 233.229 0.0359279L233.219 0.0159084Z" fill="#282828"/>
<path d="M182.719 0.0159084C173.819 0.575908 166.549 7.70599 165.829 16.596C165.829 16.676 165.819 16.746 165.809 16.826C165.189 25.876 161.839 34.526 155.979 41.456L129.939 72.2759C126.479 76.3659 121.629 78.9759 116.339 79.7959C116.279 79.7959 116.219 79.816 116.159 79.826C108.009 81.166 101.709 87.986 101.059 96.216C100.179 107.326 109.329 116.536 120.409 115.766C129.409 115.136 136.659 107.806 137.199 98.7959C137.199 98.7159 137.199 98.6259 137.209 98.5459C137.699 87.8259 141.589 77.546 148.509 69.356L170.369 43.496C174.059 39.136 179.389 36.556 185.089 36.186C185.159 36.186 185.219 36.1859 185.289 36.1759C194.529 35.4759 201.839 27.706 201.999 18.436C202.179 7.89595 193.369 -0.624072 182.729 0.0359279L182.719 0.0159084Z" fill="#282828"/>
<path d="M132.219 0.0159084C123.319 0.575908 116.049 7.70599 115.329 16.596C115.329 16.676 115.319 16.746 115.309 16.826C114.689 25.876 111.339 34.526 105.479 41.456L79.4386 72.2759C75.9786 76.3659 71.1286 78.9759 65.8386 79.7959C65.7786 79.7959 65.7186 79.816 65.6586 79.826C57.5086 81.166 51.2086 87.986 50.5586 96.216C49.6786 107.326 58.8286 116.536 69.9086 115.766C78.9086 115.136 86.1586 107.806 86.6986 98.7959C86.6986 98.7159 86.6986 98.6259 86.7086 98.5459C87.1986 87.8259 91.0886 77.546 98.0086 69.356L119.869 43.496C123.559 39.136 128.889 36.556 134.589 36.186C134.659 36.186 134.719 36.1859 134.789 36.1759C144.029 35.4759 151.339 27.706 151.499 18.436C151.679 7.89595 142.869 -0.624072 132.229 0.0359279L132.219 0.0159084Z" fill="#282828"/>
<path d="M182.719 0.0159084C173.819 0.575908 166.549 7.70599 165.829 16.596C165.829 16.676 165.819 16.746 165.809 16.826C165.189 25.876 161.839 34.526 155.979 41.456L129.939 72.2759C126.479 76.3659 121.629 78.9759 116.339 79.7959C116.279 79.7959 116.219 79.816 116.159 79.826C108.009 81.166 101.709 87.986 101.059 96.216C100.179 107.326 109.329 116.536 120.409 115.766C129.409 115.136 136.659 107.806 137.199 98.7959C137.199 98.7159 137.199 98.6259 137.209 98.5459C137.699 87.8259 141.589 77.546 148.509 69.356L170.369 43.496C174.059 39.136 179.389 36.556 185.089 36.186C185.159 36.186 185.219 36.1859 185.289 36.1759C194.529 35.4759 201.839 27.706 201.999 18.436C202.179 7.89595 193.369 -0.624072 182.729 0.0359279L182.719 0.0159084Z" fill="#282828"/>
<path d="M132.219 0.0159084C123.319 0.575908 116.049 7.70599 115.329 16.596C115.329 16.676 115.319 16.746 115.309 16.826C114.689 25.876 111.339 34.526 105.479 41.456L79.4386 72.2759C75.9786 76.3659 71.1286 78.9759 65.8386 79.7959C65.7786 79.7959 65.7186 79.816 65.6586 79.826C57.5086 81.166 51.2086 87.986 50.5586 96.216C49.6786 107.326 58.8286 116.536 69.9086 115.766C78.9086 115.136 86.1586 107.806 86.6986 98.7959C86.6986 98.7159 86.6986 98.6259 86.7086 98.5459C87.1986 87.8259 91.0886 77.546 98.0086 69.356L119.869 43.496C123.559 39.136 128.889 36.556 134.589 36.186C134.659 36.186 134.719 36.1859 134.789 36.1759C144.029 35.4759 151.339 27.706 151.499 18.436C151.679 7.89595 142.869 -0.624072 132.229 0.0359279L132.219 0.0159084Z" fill="#282828"/>
<path d="M81.7186 0.0159084C72.8186 0.575908 65.5486 7.70599 64.8286 16.596C64.8286 16.676 64.8186 16.746 64.8086 16.826C64.1886 25.876 60.8387 34.526 54.9787 41.456L28.9386 72.2759C25.4786 76.3659 20.6286 78.9759 15.3386 79.7959C15.2786 79.7959 15.2186 79.816 15.1586 79.826C7.00865 81.166 0.708609 87.986 0.0586087 96.216C-0.821391 107.326 8.32865 116.536 19.4086 115.766C28.4086 115.136 35.6586 107.806 36.1986 98.7959C36.1986 98.7159 36.1986 98.6259 36.2086 98.5459C36.6986 87.8259 40.5886 77.546 47.5086 69.356L69.3686 43.496C73.0586 39.136 78.3886 36.556 84.0886 36.186C84.1586 36.186 84.2187 36.1859 84.2887 36.1759C93.5286 35.4759 100.839 27.706 100.999 18.436C101.179 7.89595 92.3687 -0.624072 81.7287 0.0359279L81.7186 0.0159084Z" fill="#282828"/>
</svg>
