<svg width="371" height="285" viewBox="0 0 371 285" fill="none" xmlns="http://www.w3.org/2000/svg">
<path d="M370.02 138.055C370.02 119.175 354.67 101.845 329.04 88.2153C345.67 99.5053 355.3 112.885 355.3 127.225C355.3 160.645 303.05 188.825 231.7 197.545C303.26 125.525 336.24 42.4453 305.37 11.5753C292.02 -1.77467 268.91 -3.17469 241.15 5.30531C260.89 1.52531 277.16 4.17532 287.3 14.3153C315.85 42.8653 285.08 119.915 218.58 186.415C213.92 191.075 209.21 195.545 204.48 199.845C198.09 200.155 191.6 200.325 185.01 200.325C178.42 200.325 171.93 200.155 165.54 199.845C160.8 195.545 156.09 191.075 151.44 186.415C84.9399 119.915 54.17 42.8653 82.72 14.3153C92.86 4.17532 109.13 1.52531 128.87 5.30531C101.11 -3.17469 77.9999 -1.77467 64.6499 11.5753C33.7799 42.4453 66.7601 125.525 138.32 197.545C66.9701 188.835 14.72 160.655 14.72 127.225C14.72 112.885 24.35 99.5053 40.98 88.2153C15.36 101.845 0 119.175 0 138.055C0 178.065 68.9201 211.155 158.57 216.655C162.62 220.235 166.69 223.705 170.77 227.035C118.58 264.095 68.33 276.985 46.48 255.135C36.34 244.995 33.69 228.725 37.47 208.985C28.99 236.745 30.39 259.855 43.74 273.205C68.34 297.805 126.11 281.855 185.01 238.135C243.91 281.855 301.68 297.805 326.28 273.205C339.63 259.855 341.03 236.745 332.55 208.985C336.33 228.725 333.68 244.995 323.54 255.135C301.69 276.985 251.44 264.085 199.25 227.035C203.33 223.705 207.39 220.245 211.45 216.655C301.1 211.145 370.02 178.055 370.02 138.055Z" fill="#282828"/>
</svg>
