<svg width="398" height="286" viewBox="0 0 398 286" fill="none" xmlns="http://www.w3.org/2000/svg">
<path d="M398 139.08H341.88C339.83 62.04 276.52 0 199 0C121.48 0 58.17 62.04 56.12 139.08H0V146.79H56.12C58.17 223.83 121.48 285.87 199 285.87C276.52 285.87 339.83 223.83 341.88 146.79H398V139.08ZM334.2 139.08H285.28C284.7 102.69 276.02 68.56 260.63 42.62C252.99 29.74 244.12 19.56 234.44 12.39C290.7 27.68 332.49 78.45 334.2 139.08ZM168.77 146.79C182.25 151.32 190.62 159.69 195.15 173.17V278.03C154.3 274.62 121.53 217.39 120.38 146.79H168.77ZM120.37 139.08C121.52 68.48 154.29 11.24 195.14 7.84003V111.74C190.27 126.24 180.96 134.83 165.62 139.08H120.37ZM202.85 176.31C207.11 160.97 215.69 151.66 230.19 146.79H277.62C276.47 217.39 243.7 274.63 202.84 278.03V176.31H202.85ZM233.34 139.08C216.92 134.52 207.41 125.01 202.86 108.6V7.84003C243.71 11.25 276.48 68.48 277.64 139.08H233.35H233.34ZM163.56 12.39C153.88 19.56 145.01 29.73 137.36 42.62C121.98 68.56 113.29 102.69 112.72 139.08H63.8C65.51 78.45 107.3 27.68 163.56 12.39ZM63.8 146.79H112.72C113.3 183.18 121.98 217.31 137.36 243.25C145 256.13 153.87 266.31 163.56 273.48C107.3 258.19 65.51 207.42 63.8 146.79ZM234.44 273.47C244.12 266.3 252.99 256.13 260.63 243.24C276.02 217.3 284.7 183.17 285.28 146.78H334.2C332.49 207.41 290.7 258.18 234.44 273.47Z" fill="#282828"/>
</svg>
