<svg width="290" height="305" viewBox="0 0 290 305" fill="none" xmlns="http://www.w3.org/2000/svg">
<path d="M252.68 1.52911L97.1896 40.4191C83.7096 43.7891 68.4796 58.9591 62.4296 74.7691L3.84972 227.829C-3.70028 247.559 0.0895367 266.109 13.1595 268.989L172.15 303.999C198.16 309.729 227.1 288.739 234.42 257.719L288.12 30.1091C293.37 7.84912 276.73 -4.5009 252.68 1.5191V1.52911ZM62.5397 84.8491C68.6797 68.6791 84.1695 53.3791 97.8895 50.2091L160.97 35.6291C127.53 138.149 120.7 142.929 38.8297 147.269L62.5497 84.8491H62.5397ZM12.9996 215.209L38.8197 147.269C120.34 143.029 124.51 147.309 85.9296 267.089L23.0497 255.439C9.65967 252.959 5.54962 234.809 12.9996 215.209ZM211.48 234.739C204.15 263.659 177.19 284.019 153.33 279.589L85.9396 267.099C122.96 153.719 132.41 143.209 236.25 136.959L211.48 234.729V234.739ZM258.25 50.1691L236.29 136.839C132.52 141.559 129.76 132.639 160.98 35.6291L226.23 20.5491C248.77 15.3391 263.82 28.1891 258.25 50.1791V50.1691Z" fill="#282828"/>
</svg>
