<svg width="314" height="293" viewBox="0 0 314 293" fill="none" xmlns="http://www.w3.org/2000/svg">
<path d="M216.53 137.75C221.11 174.29 213.94 194.46 189.53 202.16C165.96 193.58 156.76 175.5 154.85 143.44C158.29 115.16 174.42 103.98 212.9 99.48C165.83 104.98 150.91 93.3 149.13 55.83C150.39 82.33 144.07 97.86 125.88 106.24C109.72 102.82 103.51 91.4499 103.06 69.8199C106.4 45.9799 118.92 35.26 149.25 27.85C113.75 36.52 102.97 28.98 103.43 0C103.1 20.54 97.5001 33.15 83.0701 41.41C69.7301 40.29 65.64 30.9 66.98 11.38C65.64 30.9 60.1801 42.7501 47.3401 50.3101C35.8601 49.0101 32.7701 40 34.8801 21.4C31.9101 47.59 22.78 58.7401 0 64.3101C22.78 58.7501 29.7999 66.18 26.4299 95.91C28.8799 74.35 34.4001 62.5799 46.8801 55.3199C58.3401 56.7699 62.6101 65.86 61.8301 85.74C57.6901 109.17 46.38 118.97 22.51 121.76C50.34 118.51 59.5099 129.27 56.9299 167.32C58.7999 139.67 65.0801 125.42 80.3901 118.18C95.9101 122.24 101.83 136.12 101.53 165.29C97.08 192.68 83.0001 202.49 53.8601 201.29C89.4001 202.76 102.13 219.29 101.43 270.95C101.94 233.31 109.17 215.27 128.91 208.73C150.32 217.79 159.54 238.71 161.61 280.55C159.54 238.71 166.97 218.82 190.34 211.72C217.07 221.9 230.02 245.32 235.92 292.4C227.84 228 245.47 209.23 313.31 212.03C245.46 209.22 223.02 189.62 216.52 137.77L216.53 137.75ZM62.1602 83.73C62.3302 82.28 62.51 80.89 62.72 79.53C62.55 80.97 62.3702 82.37 62.1602 83.73ZM80.6602 111.78C67.0702 108.43 62.3601 97.7001 63.0901 77.3C65.8101 62.23 71.6801 52.9901 82.8301 46.6801C96.2001 47.9601 101.74 57.4799 102.09 78.5699C99.8201 95.2199 93.3401 105.68 80.6501 111.78H80.6602ZM101.55 165.18C101.69 158.1 102.18 151.84 103.1 146.32C102.95 153.36 102.45 159.63 101.55 165.18ZM128.78 200.08C109.64 192.32 102.96 175.74 103.13 146.15C105.99 129.06 112.91 119 125.99 113.09C144.58 117.29 152.58 132.19 154.27 163.76C152.01 183.23 144.18 194.82 128.78 200.08ZM154.28 163.67C153.98 156.19 154.13 149.54 154.84 143.64C155.13 151.07 154.96 157.74 154.28 163.67Z" fill="#282828"/>
</svg>
