<svg width="271" height="411" viewBox="0 0 271 411" fill="none" xmlns="http://www.w3.org/2000/svg">
<path d="M65.7998 0.0100098C42.7898 0.0100098 20.6598 3.79991 0.00976562 10.7799C8.65977 9.61991 17.4797 9 26.4497 9C134.82 9 222.66 96.85 222.66 205.21C222.66 206.68 222.64 208.14 222.6 209.6C240.23 207.75 246.18 184.22 246.18 119.05C246.18 185.66 252.4 208.77 270.94 209.69C270.97 208.2 271 206.71 271 205.21C271 91.88 179.13 0 65.7898 0L65.7998 0.0100098Z" fill="#282828"/>
<path d="M246.18 300.41C246.18 235.23 240.22 211.7 222.59 209.86C220.13 316.08 133.25 401.44 26.4399 401.44C17.4699 401.44 8.65 400.83 0 399.66C20.65 406.65 42.78 410.43 65.79 410.43C177.6 410.43 268.52 321 270.94 209.77C252.4 210.69 246.18 233.8 246.18 300.41Z" fill="#282828"/>
</svg>
