<svg width="261" height="261" viewBox="0 0 261 261" fill="none" xmlns="http://www.w3.org/2000/svg">
<path d="M259.18 119.06C239.77 99.6501 229.08 73.85 229.08 46.4V45.23L214.78 30.9301H213.61C186.16 30.9301 160.36 20.2401 140.95 0.830078L140.12 0H119.89L119.06 0.830078C99.6501 20.2401 73.8499 30.9301 46.3999 30.9301H45.23L30.9299 45.23V46.4C30.9299 73.85 20.2401 99.6501 0.830078 119.06L0 119.89V140.12L0.830078 140.95C20.2401 160.36 30.9299 186.16 30.9299 213.61V214.78L45.23 229.08H46.3999C73.8499 229.08 99.6501 239.77 119.06 259.18L119.89 260.01H140.12L140.95 259.18C160.36 239.77 186.16 229.08 213.61 229.08H214.78L229.08 214.78V213.61C229.08 186.16 239.77 160.36 259.18 140.95L260.01 140.12V119.89L259.18 119.06ZM254.35 137.78C234.67 157.88 223.73 184.3 223.43 212.42L212.42 223.43C184.29 223.73 157.88 234.67 137.78 254.35H122.21C102.11 234.67 75.6901 223.73 47.5701 223.43L36.5601 212.42C36.2601 184.29 25.3199 157.88 5.63989 137.78V122.22C25.3199 102.12 36.2601 75.7001 36.5601 47.5801L47.5701 36.5701C75.7001 36.2701 102.11 25.33 122.21 5.65002H137.78C157.88 25.33 184.3 36.2701 212.42 36.5701L223.43 47.5801C223.73 75.7101 234.67 102.12 254.35 122.22V137.78Z" fill="#282828"/>
<path d="M214.01 51.47L208.54 45.99H207.37C179.92 45.99 154.12 35.3 134.71 15.89L133.88 15.0601H126.14L125.31 15.89C105.9 35.3 80.0999 45.99 52.6499 45.99H51.48L46.01 51.47V52.64C46.01 80.09 35.3199 105.89 15.9099 125.3L15.0801 126.13V133.87L15.9099 134.7C35.3199 154.11 46.01 179.91 46.01 207.36V208.53L51.48 214.01H52.6499C80.0999 214.01 105.9 224.7 125.31 244.11L126.14 244.94H133.88L134.71 244.11C154.12 224.7 179.92 214.01 207.37 214.01H208.54L214.01 208.53V207.36C214.01 179.91 224.7 154.11 244.11 134.7L244.94 133.87V126.13L244.11 125.3C224.7 105.89 214.01 80.09 214.01 52.64V51.47ZM239.28 128.46V131.54C219.6 151.64 208.66 178.06 208.36 206.18L206.18 208.36C178.05 208.66 151.64 219.6 131.54 239.28H128.46C108.36 219.6 81.9401 208.66 53.8201 208.36L51.6399 206.18C51.3399 178.05 40.4 151.64 20.72 131.54V128.46C40.4 108.36 51.3399 81.9401 51.6399 53.8201L53.8201 51.64C81.9501 51.34 108.36 40.4 128.46 20.72H131.54C151.64 40.4 178.06 51.34 206.18 51.64L208.36 53.8201C208.66 81.9501 219.6 108.36 239.28 128.46Z" fill="#282828"/>
<path d="M195.95 64.0498H193.54C170.18 64.0498 148.22 54.9498 131.7 38.4398L130 36.7397L128.3 38.4398C111.78 54.9598 89.8202 64.0498 66.4602 64.0498H64.0503V66.4597C64.0503 89.8197 54.9502 111.78 38.4402 128.3L36.7402 130L38.4402 131.7C54.9602 148.22 64.0503 170.18 64.0503 193.54V195.95H66.4602C89.8202 195.95 111.78 205.05 128.3 221.56L130 223.26L131.7 221.56C148.22 205.04 170.18 195.95 193.54 195.95H195.95V193.54C195.95 170.18 205.05 148.22 221.56 131.7L223.26 130L221.56 128.3C205.04 111.78 195.95 89.8197 195.95 66.4597V64.0498ZM216.5 130C200.67 146.65 191.74 168.2 191.16 191.16C168.19 191.74 146.64 200.66 130 216.5C113.35 200.67 91.8003 191.74 68.8403 191.16C68.2603 168.19 59.3402 146.64 43.5002 130C59.3302 113.35 68.2603 91.7997 68.8403 68.8397C91.8103 68.2597 113.36 59.3398 130 43.4998C146.65 59.3298 168.2 68.2597 191.16 68.8397C191.74 91.8097 200.66 113.36 216.5 130Z" fill="#282828"/>
<path d="M178.63 81.37H176.86C159.64 81.37 143.44 74.66 131.26 62.48L130.01 61.23L128.76 62.48C116.58 74.66 100.39 81.37 83.1599 81.37H81.3899V83.14C81.3899 100.36 74.68 116.56 62.5 128.74L61.25 129.99L62.5 131.24C74.68 143.42 81.3899 159.61 81.3899 176.84V178.61H83.1599C100.38 178.61 116.58 185.32 128.76 197.5L130.01 198.75L131.26 197.5C143.44 185.32 159.63 178.61 176.86 178.61H178.63V176.84C178.63 159.62 185.34 143.42 197.52 131.24L198.77 129.99L197.52 128.74C185.34 116.56 178.63 100.37 178.63 83.14V81.37Z" fill="#282828"/>
</svg>
