<svg width="350" height="176" viewBox="0 0 350 176" fill="none" xmlns="http://www.w3.org/2000/svg">
<path d="M292.33 0.0400085C275.1 47.23 254.61 71.84 219.67 81.98C192.13 71.83 189.62 47.21 206.85 0.019989C189.62 47.21 169.13 71.82 134.19 81.96C106.65 71.81 104.14 47.19 121.37 0C97.35 65.77 67.01 87.69 0 87.68C67.01 87.7 81.3401 109.63 57.3201 175.4C74.5501 128.21 95.04 103.6 129.98 93.46C157.52 103.61 160.03 128.23 142.8 175.42C160.03 128.23 180.52 103.62 215.46 93.48C243 103.63 245.51 128.25 228.28 175.44C252.3 109.67 282.64 87.75 349.65 87.76C282.64 87.74 268.31 65.81 292.33 0.0400085Z" fill="#282828"/>
</svg>
