<svg width="505" height="505" viewBox="0 0 505 505" fill="none" xmlns="http://www.w3.org/2000/svg">
<path d="M211.7 350.11C209.27 355.95 206.7 362.18 203.97 368.76C206.7 362.18 209.28 355.96 211.7 350.11Z" fill="#282828"/>
<path d="M73.8701 430.6C83.9301 420.54 93.4301 411.05 102.38 402.09C93.4201 411.04 83.9301 420.54 73.8701 430.6Z" fill="#282828"/>
<path d="M154.37 292.78C148.52 295.2 142.3 297.78 135.72 300.51C142.3 297.78 148.53 295.21 154.37 292.78Z" fill="#282828"/>
<path d="M350.1 292.78C355.94 295.21 362.17 297.78 368.75 300.51C362.17 297.78 355.95 295.2 350.1 292.78Z" fill="#282828"/>
<path d="M292.77 350.11C295.19 355.96 297.77 362.18 300.5 368.76C297.77 362.18 295.2 355.95 292.77 350.11Z" fill="#282828"/>
<path d="M154.37 211.7C148.53 209.27 142.3 206.7 135.72 203.97C142.3 206.7 148.52 209.28 154.37 211.7Z" fill="#282828"/>
<path d="M430.59 73.8799C420.49 83.9799 410.96 93.5099 401.98 102.49C410.97 93.5099 420.49 83.9799 430.59 73.8799Z" fill="#282828"/>
<path d="M350.1 211.7C355.95 209.28 362.17 206.7 368.75 203.97C362.17 206.7 355.94 209.27 350.1 211.7Z" fill="#282828"/>
<path d="M350.1 211.7C256.24 250.48 258.19 246.34 401.98 102.49C258.13 246.28 253.99 248.23 292.77 154.37C253.81 248.19 252.28 243.85 252.23 40.2998C252.18 243.86 250.65 248.19 211.69 154.37C250.47 248.24 246.33 246.28 102.43 102.44C246.27 246.34 248.23 250.48 154.36 211.7C248.18 250.66 243.84 252.19 40.29 252.24C243.85 252.29 248.18 253.82 154.36 292.78C248.24 253.99 246.27 258.14 102.38 402.09C246.33 258.2 250.48 256.22 211.69 350.11C250.65 256.29 252.18 260.63 252.23 464.18C252.28 260.62 253.81 256.29 292.77 350.11C253.99 256.24 258.13 258.2 402.03 402.04C258.19 258.14 256.23 254 350.1 292.78C256.28 253.82 260.62 252.29 464.17 252.24C260.61 252.19 256.28 250.66 350.1 211.7Z" fill="#282828"/>
<path d="M211.7 154.37C209.28 148.52 206.7 142.3 203.97 135.72C206.7 142.3 209.27 148.53 211.7 154.37Z" fill="#282828"/>
<path d="M292.77 154.37C295.2 148.53 297.77 142.3 300.5 135.72C297.77 142.3 295.19 148.52 292.77 154.37Z" fill="#282828"/>
</svg>
