<svg width="337" height="337" viewBox="0 0 337 337" fill="none" xmlns="http://www.w3.org/2000/svg">
<path d="M334.28 197C313.28 193 290.28 189 272.28 176C267.28 167 275.28 159 281.28 152C296.28 131 308.28 112 314.28 87C315.28 80 312.28 70 304.28 71C288.28 85 268.28 96 247.28 99C242.28 100 239.28 95 238.28 91C235.28 63 227.28 36 216.28 11C213.28 5 207.28 0 200.28 0C193.28 1 195.28 10 194.28 15C190.28 33 186.28 50 175.28 64C172.28 68 167.28 66 163.28 64C138.28 46 115.28 30 86.28 22C81.28 21 77.28 23 73.28 25C69.28 27 71.28 30 71.28 32C82.28 51 96.28 67 99.28 89C99.28 94 95.28 97 91.28 97C62.28 101 36.28 108 10.28 120C3.28004 124 -2.71996 132 1.28004 140C22.28 143 42.28 147 61.28 159C65.28 161 67.28 165 65.28 169C54.28 188 40.28 204 31.28 224C27.28 233 24.28 241 21.28 250C20.28 256 22.28 262 27.28 265C29.28 266 32.28 266 34.28 264L37.28 261C40.28 260 42.28 258 44.28 256C59.28 248 72.28 237 89.28 238C92.28 238 95.28 238 96.28 242C99.28 254 99.28 265 102.28 277C103.28 281 104.28 284 105.28 288C110.28 302 113.28 316 122.28 329C125.28 334 132.28 339 139.28 335C143.28 318 145.28 302 152.28 286C156.28 279 160.28 268 169.28 272C174.28 274 179.28 278 184.28 282C204.28 297 226.28 307 249.28 315C253.28 316 257.28 315 260.28 313C262.28 311 267.28 308 265.28 305C252.28 287 240.28 268 236.28 247C238.28 239 247.28 238 254.28 238C280.28 235 304.28 227 328.28 215C333.28 212 339.28 203 334.28 197Z" fill="#282828"/>
</svg>
