<svg width="584" height="345" viewBox="0 0 584 345" fill="none" xmlns="http://www.w3.org/2000/svg">
<path d="M436.49 113.28L435.5 117.9C482.79 131.25 508.83 148.09 508.83 165.33C508.83 183.72 478.25 202.04 424.94 215.59C408.75 219.7 390.98 223.27 371.99 226.26L362.12 205.49L454.93 172.49L362.12 139.49L382.87 95.84C428.37 96.54 472.69 99.93 512 105.75L512.99 101.13C479.3 91.62 436.84 84.57 390.17 80.49L404.41 50.52L347.37 77.64C334.96 77.06 322.37 76.69 309.66 76.52L282.45 0L255.03 77.11C243.2 77.52 231.55 78.1 220.1 78.86L160.48 50.52L175.82 82.8C143.31 86.47 113.39 91.67 87.46 98.26C31.06 112.59 0 132.07 0 153.1C0 181.12 55.1 206.01 147.4 219.68L148.39 215.06C101.1 201.71 75.06 184.87 75.06 167.63C75.06 149.24 105.64 130.92 158.95 117.37C168.47 114.95 178.54 112.73 189.08 110.69L202.76 139.46L109.95 172.46L202.76 205.46L187.85 236.83C147 235.73 107.41 232.46 71.91 227.2L70.92 231.82C101.52 240.46 139.35 247.06 180.99 251.26L160.47 294.42L242.22 255.56C245.06 255.68 247.91 255.78 250.77 255.88L282.44 344.94L313.98 256.25C317.2 256.18 320.41 256.1 323.61 256.01L404.41 294.42L384.48 252.5C426.15 248.86 464.35 242.84 496.44 234.69C552.84 220.36 583.9 200.88 583.9 179.85C583.9 151.83 528.8 126.94 436.5 113.27L436.49 113.28ZM468.67 95.73C441.94 93.17 413.76 91.63 385.09 91.14L387.99 85.03C416.85 87.5 444.1 91.11 468.66 95.73H468.67ZM338.22 81.97L317.24 91.94C316.55 91.97 315.86 91.99 315.17 92.02L311.34 81.26C320.37 81.39 329.33 81.63 338.22 81.97ZM253.31 81.88L249.43 92.79L228.9 83.03C236.94 82.56 245.08 82.18 253.31 81.88ZM157.79 112.79C101.39 127.12 70.33 146.6 70.33 167.63C70.33 185.79 92.28 199.74 117.69 209.81C87.81 204 62.48 196.75 43.39 188.49C18.1 177.55 4.73 165.31 4.73 153.09C4.73 134.7 35.31 116.38 88.62 102.83C114.78 96.18 145.04 90.96 177.96 87.3L186.98 106.28C176.79 108.27 167.03 110.44 157.79 112.79ZM495.27 230.12C440.21 244.11 366.96 251.81 289.02 251.81C226.03 251.81 165.1 246.61 115.23 237.22C148.13 240.37 183.2 242 218.69 242C297.01 242 370.68 234.24 426.11 220.16C482.51 205.83 513.57 186.35 513.57 165.32C513.57 147.16 491.62 133.21 466.21 123.14C496.09 128.95 521.42 136.2 540.51 144.46C565.8 155.4 579.17 167.64 579.17 179.86C579.17 198.25 548.59 216.57 495.28 230.12H495.27Z" fill="#282828"/>
</svg>
