<svg width="464" height="527" viewBox="0 0 464 527" fill="none" xmlns="http://www.w3.org/2000/svg">
<path d="M368.43 288.11C398.89 317.38 413.58 342.44 405.74 357.13C395.8 375.76 351.88 373.57 292.03 355.02L275.48 286.88L352.93 258.45C382.31 275.44 409.02 292.93 432.04 309.98C414.01 292.66 390.44 273.85 362.75 254.85L463.39 217.9L309.31 221.02C302.19 216.85 294.91 212.71 287.48 208.6L372.35 0L246.02 186.94C238.84 183.4 231.73 180.01 224.68 176.75L140.65 45.61L166.6 152.41C90.09 123.87 31.25 116.94 19.54 138.88C8.28998 159.96 43.39 202.36 104.96 247.95C74.5 218.68 59.81 193.62 67.65 178.93C77.12 161.19 117.41 162.32 172.94 178.5L187.91 240.13L107.17 269.77C83 255.27 60.84 240.51 41.35 226.07C56.74 240.86 76.16 256.72 98.73 272.86L0 309.11L149.12 306.09C157.43 311.16 165.98 316.21 174.77 321.2L91.04 527L215.34 343.06C224.55 347.76 233.68 352.23 242.7 356.48L322.74 481.39L298.2 380.37C378.88 411.62 441.72 419.92 453.86 397.17C465.11 376.09 430.01 333.69 368.44 288.1L368.43 288.11ZM282.91 221.56H282.21L282.33 221.28C282.53 221.37 282.72 221.46 282.92 221.56H282.91ZM172.36 305.62L181.18 305.44L179.63 309.24C177.21 308.05 174.79 306.84 172.36 305.62ZM224.29 329.81L224.96 328.82L226.08 330.57C225.48 330.32 224.89 330.07 224.29 329.81Z" fill="#282828"/>
</svg>
