<svg width="658" height="276" viewBox="0 0 658 276" fill="none" xmlns="http://www.w3.org/2000/svg">
<path d="M108.56 187C105.659 187 103.013 186.317 100.624 184.952C98.32 183.501 96.4427 181.624 94.992 179.32C93.6267 176.931 92.944 174.328 92.944 171.512V128.248C92.944 125.432 93.6267 122.872 94.992 120.568C96.4427 118.179 98.32 116.301 100.624 114.936C103.013 113.485 105.659 112.76 108.56 112.76H158.096V88.44H168.592V187H108.56ZM108.56 176.504H153.104C154.469 176.504 155.621 176.035 156.56 175.096C157.584 174.072 158.096 172.877 158.096 171.512V128.248C158.096 126.883 157.584 125.731 156.56 124.792C155.621 123.768 154.469 123.256 153.104 123.256H108.56C107.195 123.256 106 123.768 104.976 124.792C104.037 125.731 103.568 126.883 103.568 128.248V171.512C103.568 172.877 104.037 174.072 104.976 175.096C106 176.035 107.195 176.504 108.56 176.504ZM181.263 187V186.872L212.239 149.24L181.263 112.888V112.76H195.087L219.151 140.92L243.343 112.76H257.039V112.888L226.063 149.24L257.167 186.872V187H243.343L219.151 157.304L195.087 187H181.263ZM286.272 187C283.371 187 280.725 186.317 278.336 184.952C276.032 183.501 274.197 181.624 272.832 179.32C271.467 176.931 270.784 174.328 270.784 171.512V88.44H281.28V112.76H313.408V123.256H281.28V171.512C281.28 172.877 281.749 174.072 282.688 175.096C283.712 176.035 284.907 176.504 286.272 176.504H313.408V187H286.272ZM323.412 187V176.504H333.908V187H323.412ZM366.147 187C363.246 187 360.6 186.317 358.211 184.952C355.907 183.501 354.072 181.624 352.707 179.32C351.342 176.931 350.659 174.328 350.659 171.512V88.44H361.155V112.76H393.283V123.256H361.155V171.512C361.155 172.877 361.624 174.072 362.563 175.096C363.587 176.035 364.782 176.504 366.147 176.504H393.283V187H366.147ZM418.007 187C415.191 187 412.588 186.317 410.199 184.952C407.895 183.501 406.018 181.624 404.567 179.32C403.202 176.931 402.519 174.328 402.519 171.512V170.488H413.015V171.512C413.015 172.877 413.484 174.072 414.423 175.096C415.447 176.035 416.642 176.504 418.007 176.504H462.551C463.916 176.504 465.068 176.035 466.007 175.096C467.031 174.072 467.543 172.877 467.543 171.512V160.12C467.543 158.755 467.031 157.603 466.007 156.664C465.068 155.64 463.916 155.128 462.551 155.128H418.007C415.191 155.128 412.588 154.445 410.199 153.08C407.895 151.629 406.018 149.752 404.567 147.448C403.202 145.059 402.519 142.456 402.519 139.64V128.248C402.519 125.432 403.202 122.872 404.567 120.568C406.018 118.179 407.895 116.301 410.199 114.936C412.588 113.485 415.191 112.76 418.007 112.76H462.551C465.452 112.76 468.055 113.485 470.359 114.936C472.748 116.301 474.626 118.179 475.991 120.568C477.442 122.872 478.167 125.432 478.167 128.248V129.272H467.543V128.248C467.543 126.883 467.031 125.731 466.007 124.792C465.068 123.768 463.916 123.256 462.551 123.256H418.007C416.642 123.256 415.447 123.768 414.423 124.792C413.484 125.731 413.015 126.883 413.015 128.248V139.64C413.015 141.005 413.484 142.2 414.423 143.224C415.447 144.163 416.642 144.632 418.007 144.632H462.551C465.452 144.632 468.055 145.357 470.359 146.808C472.748 148.173 474.626 150.051 475.991 152.44C477.442 154.744 478.167 157.304 478.167 160.12V171.512C478.167 174.328 477.442 176.931 475.991 179.32C474.626 181.624 472.748 183.501 470.359 184.952C468.055 186.317 465.452 187 462.551 187H418.007ZM485.263 187V186.872L516.239 149.24L485.263 112.888V112.76H499.087L523.151 140.92L547.343 112.76H561.039V112.888L530.063 149.24L561.167 186.872V187H547.343L523.151 157.304L499.087 187H485.263Z" fill="black"/>
<path d="M521.705 1.0067C506.421 1.0067 491.722 3.54269 478.007 8.21332C483.752 7.43711 489.61 7.0223 495.568 7.0223C567.548 7.0223 625.892 65.8067 625.892 138.315C625.892 139.299 625.879 140.276 625.852 141.253C637.562 140.015 641.514 124.27 641.514 80.6616C641.514 125.233 645.646 140.697 657.96 141.313C657.98 140.316 658 139.319 658 138.315C658 62.481 596.979 1 521.698 1L521.705 1.0067Z" fill="#282828"/>
<path d="M641.514 202.018C641.514 158.403 637.556 142.658 625.846 141.427C624.212 212.503 566.505 269.621 495.562 269.621C489.604 269.621 483.745 269.213 478 268.43C491.716 273.108 506.415 275.637 521.698 275.637C595.963 275.637 656.353 215.795 657.96 141.366C645.646 141.982 641.514 157.446 641.514 202.018Z" fill="#282828"/>
<path d="M136.295 0.00669798C151.579 0.00669798 166.278 2.54269 179.993 7.21332C174.248 6.43711 168.39 6.0223 162.432 6.0223C90.4518 6.0223 32.1079 64.8067 32.1079 137.315C32.1079 138.299 32.1212 139.276 32.1478 140.253C20.4378 139.015 16.4858 123.27 16.4858 79.6616C16.4858 124.233 12.3544 139.697 0.0400014 140.313C0.0200752 139.316 0.0001101 138.319 0.0001101 137.315C0.0001101 61.481 61.0207 0 136.302 0L136.295 0.00669798Z" fill="#282828"/>
<path d="M16.4857 201.018C16.4857 157.403 20.4443 141.658 32.1542 140.427C33.7882 211.503 91.4945 268.621 162.438 268.621C168.396 268.621 174.255 268.213 180 267.43C166.284 272.108 151.585 274.637 136.302 274.637C62.0369 274.637 1.64732 214.795 0.0399447 140.366C12.3543 140.982 16.4857 156.446 16.4857 201.018Z" fill="#282828"/>
</svg>
